<svg width="234" height="210" viewBox="0 0 234 210" fill="none" xmlns="http://www.w3.org/2000/svg">
<path d="M48.127 70.271C48.127 70.271 34.3325 29.4539 82.4479 34.4356C130.563 39.4173 107.574 21.351 125.756 10.1396C143.937 -1.07175 197.509 33.8078 175.096 67.4496C152.684 101.091 210.914 70.3171 223.06 120.908C230.556 152.128 211.959 175.107 196.617 188.133" stroke="#ECECEC" stroke-width="2" stroke-miterlimit="10"/>
<path d="M201.309 149.125C197.693 128.186 184.89 109.449 164.089 102.742C158.768 101.036 153.327 99.73 147.812 98.8344V98.8626C147.524 100.601 146.843 102.251 145.821 103.685C143.653 106.655 140.665 109.095 137.205 110.366C133.674 111.673 129.299 111.842 126.022 109.787C124.049 108.552 122.134 106.376 121.789 104.029C121.394 101.384 122.742 98.8805 124.638 97.1328C108.566 97.2635 93.4462 99.9081 81.3302 102.919C81.7502 104.677 82.3317 106.393 83.0677 108.044C84.0976 110.346 85.5529 112.433 87.3574 114.195C89.6082 111.965 91.5788 109.469 93.2258 106.763C94.8013 107.279 96.1907 108.246 97.2209 109.545C98.2508 110.844 98.8766 112.417 99.0198 114.069V114.154C99.6554 120.153 93.8793 124.66 89.0257 127.433C83.4187 130.657 77.1685 133.071 71.0286 135.077C68.4967 135.907 65.2063 136.615 62.5335 135.749C62.2458 135.657 61.9649 135.545 61.693 135.413C59.0279 134.106 57.2443 131.367 55.8528 128.863C51.8885 121.752 49.3105 114 47.5628 106.043C35.4341 107.593 34.0451 99.3802 33.325 97.366L22.9491 126.372C22.4048 128.457 22.3461 130.639 22.7769 132.75C23.2079 134.862 24.1174 136.846 25.4353 138.551C26.753 140.256 28.4443 141.636 30.3788 142.585C32.3136 143.534 34.44 144.027 36.5949 144.026H79.5492L99.0608 194.073L104.591 208.278H136.178C133.615 208.278 132.213 207.653 131.196 206.633C130.145 205.582 129.554 204.157 129.551 202.671C129.551 199.596 132.075 197.074 136.178 197.074H136.467C136.157 197.074 135.86 197.046 135.55 197.018C135.742 196.997 135.933 196.965 136.121 196.923C135.918 196.918 135.715 196.903 135.514 196.877C137.364 196.658 139.079 195.796 140.358 194.442C141.638 193.087 142.4 191.326 142.512 189.466C142.517 189.369 142.517 189.273 142.512 189.176V189.028C142.468 187.121 141.739 185.293 140.459 183.88C139.179 182.466 137.432 181.56 135.539 181.327C135.755 181.309 135.96 181.291 136.167 181.291C135.98 181.245 135.773 181.217 135.578 181.189C135.885 181.16 136.195 181.14 136.493 181.14L159.602 181.263L163.854 181.281H168.899C169.133 181.281 169.368 181.281 169.591 181.309L177.087 181.348L182.094 181.376C184.187 181.393 186.187 182.239 187.658 183.728C189.129 185.216 189.951 187.227 189.943 189.32C189.941 190.503 189.666 191.67 189.141 192.731C191.29 192.456 193.282 191.462 194.794 189.912C198.4 186.229 199.953 180.717 201.027 175.817C202.926 167.089 202.813 157.892 201.309 149.125ZM142.922 149.715C138.568 156.416 131.155 155.814 131.155 155.814C131.155 155.814 130.54 156.413 129.105 153.861C127.67 151.309 123.582 149.564 123.582 149.564C123.257 152.126 122.583 156.021 115.895 150.973C109.206 145.925 111.223 138.565 111.794 134.677C112.366 130.79 114.644 129.501 114.644 129.501L117.335 128.081C117.335 128.081 109.552 126.08 109.178 126.006C108.804 125.931 101.872 120.127 108.906 118.595C115.941 117.062 126.906 123.156 129.025 124.36C131.145 125.565 143.53 136.041 143.53 136.041C143.53 136.041 147.299 143.024 142.922 149.715Z" fill="#353642"/>
<path d="M47.5527 106.048C47.5527 106.048 53.4185 105.336 55.6147 101.148L53.7004 111.888C53.7004 111.888 77.0354 103.944 81.315 102.919C81.315 102.919 82.6937 111.809 88.1827 114.195L93.8461 106.994C93.8461 106.994 100.947 108.788 99.0046 118.464C97.0622 128.14 70.1959 136.228 65.6396 136.041C61.0833 135.854 56.1784 133.05 51.1558 117.985L47.5527 106.048Z" fill="#353642"/>
<path d="M57.1089 82.125C58.5952 84.5441 60.0892 86.9581 61.6319 89.3413C62.5826 90.8097 64.3149 92.9033 62.4724 94.4383C61.8728 94.898 61.1486 95.1661 60.3942 95.2071C59.2102 95.3121 57.9674 95.0277 57.2473 94.0103L53.6597 88.0651C52.9447 86.8794 51.8092 86.0066 50.4797 85.6199C49.15 85.2334 47.7236 85.3618 46.4844 85.9791" stroke="black" stroke-width="2" stroke-miterlimit="10"/>
<path d="M70.6772 89.9591C71.6152 92.1886 70.9796 93.6262 69.8828 94.3488C68.089 95.5251 65.6879 94.9613 64.4168 93.2444L57.1211 82.1406" stroke="black" stroke-width="2" stroke-miterlimit="10"/>
<path d="M63.2844 78.8942C65.9392 82.1231 69.2886 88.1196 71.1413 90.6232C72.9941 93.1269 75.8591 91.6175 75.8591 91.6175C78.1859 90.3644 77.7913 88.2861 76.7739 85.762C74.2677 79.5656 70.6903 75.4449 66.7003 72.744C54.3358 64.3796 41.6509 70.5504 37.8762 84.9881L22.9491 126.371C22.4048 128.457 22.3461 130.639 22.7769 132.75C23.2079 134.861 24.1174 136.846 25.4353 138.551C26.753 140.256 28.4443 141.636 30.3788 142.585C32.3136 143.534 34.44 144.027 36.5949 144.025H79.5492L104.599 208.28" stroke="black" stroke-width="2" stroke-miterlimit="10"/>
<path d="M78.6223 82.927C81.6974 81.861 81.5565 76.9561 77.1924 75.3007C72.3721 73.471 63.8131 70.8828 61.663 70.237C61.6497 70.2268 61.6336 70.2206 61.6169 70.2191C61.4657 70.1729 61.3606 70.1345 61.2786 70.1166L61.1582 70.0781" stroke="black" stroke-width="2" stroke-miterlimit="10"/>
<path d="M124.055 131.963C121.365 128.729 114 126.897 109.192 126.01C108.384 125.858 107.648 125.448 107.093 124.841C106.538 124.234 106.196 123.464 106.117 122.645C106.061 122.093 106.125 121.536 106.304 121.01C106.591 120.204 107.14 119.517 107.863 119.06C108.587 118.603 109.443 118.401 110.294 118.489C118.495 119.319 126.951 121.899 133.207 127.458C133.207 127.458 163.53 150.598 167.151 152.851C168.645 153.758 170.039 152.687 169.027 151.262L168.709 150.718C166.926 147.66 164.817 144.804 162.418 142.2" stroke="black" stroke-width="2" stroke-miterlimit="10"/>
<path d="M124.619 97.1345C86.4819 97.4523 53.7012 111.89 53.7012 111.89L56.9736 93.5469" stroke="black" stroke-width="2" stroke-miterlimit="10"/>
<path d="M183.851 196.966C183.851 196.966 179.697 196.026 178.592 199.352C177.488 202.679 176.335 207.97 184.276 208.283C192.218 208.596 187.554 207.035 187.095 204.465C186.636 201.894 183.851 196.966 183.851 196.966Z" fill="#353642"/>
<path d="M120.392 136.184C120.392 136.184 115.91 132.786 111.874 136.23C111.704 136.38 111.556 136.552 111.434 136.743" stroke="black" stroke-width="2" stroke-miterlimit="10"/>
<g opacity="0.77">
<path opacity="0.77" d="M64.4019 93.2322C65.6832 94.9517 68.0818 95.513 69.8679 94.3342C70.9519 93.6166 71.5874 92.1867 70.6726 89.9777C70.8392 90.2212 70.9903 90.4364 71.139 90.6338C72.9892 93.1477 75.8567 91.6332 75.8567 91.6332C78.1836 90.3801 77.7915 88.3018 76.7741 85.7751C75.7786 83.2724 74.4724 80.9049 72.8867 78.7279C73.9245 77.7567 75.1571 76.7752 76.4564 77.2057C77.8581 77.6721 78.2502 79.4301 78.4091 80.8959C78.4834 81.5775 78.5577 82.2515 78.632 82.9332L79.7544 92.9683C80.1286 96.2997 80.5027 99.6797 81.3151 102.932C81.7351 104.69 82.3165 106.406 83.0525 108.057C84.0824 110.359 85.5377 112.446 87.3423 114.207C89.593 111.977 91.5637 109.482 93.2107 106.776C94.7861 107.291 96.1756 108.259 97.2057 109.558C98.2357 110.857 98.8614 112.43 99.0047 114.082V114.166C99.6402 120.165 93.8641 124.673 89.0106 127.446C83.4036 130.669 77.1534 133.083 71.0134 135.09C68.4816 135.92 65.1912 136.627 62.5184 135.761C62.2306 135.669 61.9498 135.557 61.6779 135.425C59.0128 134.119 57.2292 131.379 55.8377 128.875C49.1749 116.895 46.4073 103.139 44.9492 89.5165C47.8655 89.1141 50.7714 88.6657 53.6416 88.0481C53.6416 88.0481 53.6416 88.0686 53.6595 88.0763L56.9678 93.5628L57.2394 94.019C57.957 95.044 59.1998 95.3182 60.3863 95.2157C61.1407 95.1783 61.8654 94.91 62.462 94.4469C64.302 92.9093 62.5748 90.8234 61.6215 89.355" fill="white"/>
<path opacity="0.77" d="M64.4019 93.2322C65.6832 94.9517 68.0818 95.513 69.8679 94.3342C70.9519 93.6166 71.5874 92.1867 70.6726 89.9777C70.8392 90.2212 70.9903 90.4364 71.139 90.6338C72.9892 93.1477 75.8567 91.6332 75.8567 91.6332C78.1836 90.3801 77.7915 88.3018 76.7741 85.7751C75.7786 83.2724 74.4724 80.9049 72.8867 78.7279C73.9245 77.7567 75.1571 76.7752 76.4564 77.2057C77.8581 77.6721 78.2502 79.4301 78.4091 80.8959C78.4834 81.5775 78.5577 82.2515 78.632 82.9332L79.7544 92.9683C80.1286 96.2997 80.5027 99.6797 81.3151 102.932C81.7351 104.69 82.3165 106.406 83.0525 108.057C84.0824 110.359 85.5377 112.446 87.3423 114.207C89.593 111.977 91.5637 109.482 93.2107 106.776C94.7861 107.291 96.1756 108.259 97.2057 109.558C98.2357 110.857 98.8614 112.43 99.0047 114.082V114.166C99.6402 120.165 93.8641 124.673 89.0106 127.446C83.4036 130.669 77.1534 133.083 71.0134 135.09C68.4816 135.92 65.1912 136.627 62.5184 135.761C62.2306 135.669 61.9498 135.557 61.6779 135.425C59.0128 134.119 57.2292 131.379 55.8377 128.875C49.1749 116.895 46.4073 103.139 44.9492 89.5165C47.8655 89.1141 50.7714 88.6657 53.6416 88.0481C53.6416 88.0481 53.6416 88.0686 53.6595 88.0763L56.9678 93.5628L57.2394 94.019C57.957 95.044 59.1998 95.3182 60.3863 95.2157C61.1407 95.1783 61.8654 94.91 62.462 94.4469C64.302 92.9093 62.5748 90.8234 61.6215 89.355" fill="#FF7752"/>
<path opacity="0.77" d="M65.1884 94.0447C66.3236 95.5822 68.2635 95.3875 69.8677 94.3342C70.8364 93.6936 71.6308 93.8807 70.8133 91.9049C70.9645 92.1202 70.985 91.3924 71.1182 91.5538C72.7711 93.7987 71.1387 90.6262 71.1387 90.6262C73.4451 93.5398 78.4652 90.7953 77.5452 88.5428C76.5715 86.116 75.5464 82.5284 74.2472 80.7345C75.2722 79.7659 75.0749 79.9094 76.3793 80.6807C76.7296 80.9057 77.023 81.2094 77.2359 81.5674C77.4491 81.9254 77.576 82.328 77.6067 82.7436C77.7118 83.72 77.8169 84.6553 77.9219 85.6086L78.9214 94.5777C79.2571 97.558 79.5902 100.569 80.3154 103.47C80.6903 105.038 81.2103 106.569 81.8684 108.042C82.7858 110.069 85.7327 113.444 87.3421 114.989C89.3434 113.003 91.742 109.351 93.2104 106.924C96.0293 107.79 95.9063 110.486 96.1062 113.431V113.508C96.6751 118.861 91.5191 122.882 87.1986 125.36C82.1912 128.237 76.6125 130.39 71.1311 132.184C68.8708 132.927 65.9341 133.568 63.5483 132.783C63.291 132.702 63.0399 132.602 62.7975 132.484C60.4194 131.315 58.8255 128.873 57.5826 126.636C52.1422 116.865 49.618 105.771 48.2291 94.6495C48.1271 93.8171 48.3524 92.9781 48.8572 92.3088C49.362 91.6394 50.107 91.1922 50.9352 91.0618C52.4958 90.8055 54.0513 90.5493 55.5966 90.2059L55.6401 90.2264L58.5923 95.1235C59.2355 96.0332 59.3405 95.3208 60.3989 95.2286C61.0677 95.1696 62.3644 95.039 62.882 94.6059C64.5247 93.2374 63.597 92.6711 62.7462 91.3616" fill="#FF7752"/>
</g>
<path d="M119.851 141.131C119.851 141.131 111.341 138.332 111.213 143.037" stroke="black" stroke-width="2" stroke-miterlimit="10"/>
<path opacity="0.54" d="M43.6721 189.06L26.9819 146.301C26.7751 145.473 26.7597 144.61 26.9365 143.776C27.1136 142.941 27.4785 142.158 28.0033 141.486C28.5284 140.814 29.1996 140.27 29.9663 139.896C30.7328 139.522 31.5746 139.328 32.4274 139.328H98.7219C100.21 139.328 101.656 139.829 102.825 140.75C103.994 141.672 104.819 142.96 105.167 144.407L123.438 187.156C123.636 187.981 123.644 188.84 123.462 189.668C123.28 190.496 122.912 191.273 122.387 191.938C121.862 192.604 121.193 193.142 120.43 193.513C119.667 193.883 118.83 194.075 117.982 194.076H50.1017C48.6241 194.077 47.1888 193.583 46.0238 192.675C44.8588 191.766 44.0311 190.494 43.6721 189.06Z" fill="white"/>
<path d="M122.622 148.344C122.622 148.344 124.003 149.61 123.478 151.419C123.088 152.759 121.756 153.605 120.436 153.146C116.233 151.693 112.448 149.226 111.526 145.031C111.09 142.907 110.995 140.727 111.246 138.573C111.449 136.577 111.743 134.422 112.415 132.523C113.44 129.606 116.579 127.574 119.626 128.979" stroke="black" stroke-width="2" stroke-miterlimit="10"/>
<path d="M43.6721 189.06L26.9819 146.301C26.7751 145.473 26.7597 144.61 26.9365 143.776C27.1136 142.941 27.4785 142.158 28.0033 141.486C28.5284 140.814 29.1996 140.27 29.9663 139.896C30.7328 139.522 31.5746 139.328 32.4274 139.328H98.7219C100.21 139.328 101.656 139.829 102.825 140.75C103.994 141.672 104.819 142.96 105.167 144.407L123.438 187.156C123.636 187.981 123.644 188.84 123.462 189.668C123.28 190.496 122.912 191.273 122.387 191.938C121.862 192.604 121.193 193.142 120.43 193.513C119.667 193.883 118.83 194.075 117.982 194.076H50.1017C48.6241 194.077 47.1888 193.583 46.0238 192.675C44.8588 191.766 44.0311 190.494 43.6721 189.06Z" fill="#FF7752"/>
<path d="M43.6721 189.06L26.9819 146.301C26.7751 145.473 26.7597 144.61 26.9365 143.776C27.1136 142.941 27.4785 142.158 28.0033 141.486C28.5284 140.814 29.1996 140.27 29.9663 139.896C30.7328 139.522 31.5746 139.328 32.4274 139.328H98.7219C100.21 139.328 101.656 139.829 102.825 140.75C103.994 141.672 104.819 142.96 105.167 144.407L123.438 187.156C123.636 187.981 123.644 188.84 123.462 189.668C123.28 190.496 122.912 191.273 122.387 191.938C121.862 192.604 121.193 193.142 120.43 193.513C119.667 193.883 118.83 194.075 117.982 194.076H50.1017C48.6241 194.077 47.1888 193.583 46.0238 192.675C44.8588 191.766 44.0311 190.494 43.6721 189.06Z" stroke="black" stroke-width="2" stroke-linecap="square" stroke-linejoin="round"/>
<path d="M46.115 187.334L30.7164 147.87C30.526 147.106 30.5121 146.31 30.6756 145.54C30.8391 144.77 31.1758 144.048 31.6604 143.428C32.1448 142.808 32.7641 142.307 33.4712 141.962C34.1784 141.617 34.9549 141.438 35.7416 141.438H96.9006C98.2737 141.437 99.607 141.899 100.686 142.749C101.764 143.599 102.525 144.787 102.846 146.122L119.705 185.563C119.887 186.324 119.894 187.116 119.726 187.881C119.558 188.645 119.219 189.361 118.734 189.975C118.25 190.589 117.632 191.086 116.928 191.427C116.224 191.769 115.452 191.946 114.67 191.946H52.0449C50.6839 191.948 49.3616 191.494 48.2876 190.659C47.2134 189.823 46.4489 188.653 46.115 187.334Z" fill="#FF7752"/>
<path d="M177.006 181.141L188.732 208.276" stroke="black" stroke-width="2" stroke-miterlimit="10"/>
<path d="M232.634 208.281H2" stroke="black" stroke-width="2" stroke-miterlimit="10"/>
<path d="M123.563 85.8125C121.661 87.6909 118.822 87.6883 117.205 85.9509" stroke="black" stroke-width="2" stroke-miterlimit="10"/>
<path d="M72.8867 78.7201C73.9246 77.7489 75.1572 76.7674 76.4564 77.1979C77.8582 77.6643 78.2502 79.4223 78.4091 80.8881C78.8583 84.9165 79.3068 88.9408 79.7545 92.9607C80.3234 98.0859 80.923 103.334 83.0526 108.044C84.0825 110.346 85.5378 112.433 87.3423 114.194" stroke="black" stroke-width="2" stroke-miterlimit="10"/>
<path d="M99.004 114.164V114.079C98.8607 112.428 98.2349 110.855 97.205 109.556C96.1749 108.257 94.7854 107.289 93.2099 106.773C91.563 109.48 89.5923 111.976 87.3416 114.205C81.4407 120.073 73.8603 123.958 65.6518 125.324C66.0464 126.895 66.8587 128.325 67.4199 129.837C67.9812 131.349 68.2605 133.099 67.5788 134.557C66.7178 136.418 64.2474 136.174 62.5305 135.762C62.5126 135.762 62.5023 135.762 62.4844 135.762" stroke="black" stroke-width="2" stroke-miterlimit="10"/>
<path d="M53.6455 88.0469C50.7754 88.6645 47.8694 89.1129 44.9531 89.5152C46.4112 103.138 49.1686 116.894 55.8416 128.874C57.2331 131.378 59.0167 134.117 61.6818 135.424C61.9537 135.556 62.2345 135.668 62.5223 135.76C65.1951 136.639 68.4855 135.919 71.0173 135.089C77.1676 133.079 83.4075 130.668 89.0145 127.444C93.8552 124.669 99.6313 120.164 99.0086 114.165C98.9484 113.504 98.8133 112.853 98.6063 112.222" stroke="black" stroke-width="2" stroke-miterlimit="10"/>
<path d="M101.639 60.8712C102.069 62.6645 103.05 64.2774 104.446 65.4829C105.841 66.6886 107.58 67.4256 109.416 67.5904C109.569 66.8508 109.899 66.1591 110.38 65.5764C112.43 63.1599 113.304 67.6931 119.861 64.4386C128.948 59.9182 132.398 62.5115 132.398 62.5115C132.7 62.7371 132.654 64.8176 132.705 65.1969C132.961 67.3572 133.192 69.5072 133.446 71.6649C133.599 72.9821 133.751 74.2893 133.894 75.5962C134.018 75.3737 134.155 75.1587 134.304 74.9527C135.132 72.0237 136.61 68.5644 139.798 70.0533C140.444 70.368 141.006 70.8305 141.438 71.4035C143.553 74.1814 141.951 76.8644 139.739 78.8504C139.185 79.4667 138.565 80.0208 137.892 80.5036C138.256 81.257 139.742 84.2475 139.742 84.2578C139.896 84.5602 145.09 78.6813 145.477 78.0406C146.055 76.4713 146.365 74.8159 146.394 73.1438C146.479 66.2683 143.681 58.2651 138.112 54.3212C136.731 53.3449 137.172 52.4044 137.087 51.077C137.081 51.0052 137.054 50.9371 137.008 50.8812C136.963 50.8253 136.901 50.7846 136.832 50.7643C136.763 50.7441 136.69 50.7454 136.621 50.7677C136.553 50.7902 136.493 50.8328 136.449 50.8902C134.704 52.8992 130.383 52.6994 130.383 52.6994C115.387 48.9426 110.346 55.6105 107.32 56.7995C106.085 57.2672 104.726 57.2897 103.476 56.8636C103.403 57.2772 103.217 57.6628 102.94 57.9791C102.663 58.2953 102.306 58.5298 101.905 58.6574L101.982 59.3516C102.047 59.8828 101.926 60.42 101.639 60.8712Z" fill="#FF7752"/>
<path d="M109.427 67.5961C107.591 67.4311 105.852 66.694 104.457 65.4886C103.062 64.2832 102.08 62.67 101.65 60.8769C101.481 60.1891 101.375 59.4875 101.332 58.7807L101.45 58.7679C101.611 58.7559 101.77 58.7213 101.921 58.6654C102.322 58.5378 102.68 58.3033 102.957 57.9871C103.233 57.6711 103.419 57.2852 103.492 56.8716C103.539 56.6422 103.549 56.4067 103.52 56.1746L103.136 52.7817C103.136 52.7817 105.847 54.7985 108.856 53.6197C111.864 52.4409 116.915 45.773 131.919 49.5195C131.919 49.5195 135.307 49.7194 137.044 47.7103C137.088 47.6529 137.148 47.6104 137.217 47.5881C137.285 47.5655 137.359 47.5645 137.428 47.5847C137.497 47.605 137.558 47.6457 137.604 47.7013C137.649 47.7572 137.677 47.8256 137.682 47.8974C137.772 49.2274 138.264 50.1678 139.648 51.1416C145.217 55.088 148.015 63.0885 147.928 69.9639C147.902 72.8161 146.954 75.6324 145.491 78.0489C145.104 78.6896 139.909 84.5682 139.756 84.2658C139.756 84.2658 138.269 81.265 137.905 80.5116L137.818 80.345L137.985 80.2348C138.604 79.8148 139.194 79.3551 139.753 78.8587C141.962 76.8727 143.566 74.1896 141.452 71.4118C141.019 70.8388 140.458 70.376 139.812 70.0613C136.614 68.5724 135.146 72.0319 134.318 74.961C134.157 75.5207 134.058 76.0965 134.023 76.6779C133.985 76.3192 133.946 75.9732 133.908 75.6145C133.764 74.3075 133.613 73.0006 133.459 71.6834C133.203 69.5257 132.962 67.3757 132.719 65.2154C132.68 64.8464 132.719 62.7553 132.411 62.5298C132.411 62.5298 128.959 59.9365 119.875 64.4569C113.317 67.7114 112.443 63.1756 110.393 65.5947C109.913 66.1777 109.582 66.8691 109.43 67.6089C109.383 67.8464 109.353 68.0871 109.34 68.329C109.335 68.3602 109.335 68.3923 109.34 68.4238C109.309 68.9543 109.299 69.4822 109.286 69.9998C109.238 74.9943 109.786 80.2118 111.746 84.8501C114.13 90.4724 120.436 96.0179 126.994 93.3963C129.044 92.5737 130.881 91.2489 132.562 89.842" stroke="black" stroke-width="2" stroke-miterlimit="10"/>
<path d="M113.915 79.779C114.567 79.5607 114.882 78.744 114.618 77.955C114.354 77.1657 113.611 76.7029 112.958 76.9212C112.306 77.1393 111.992 77.956 112.255 78.7453C112.52 79.5346 113.263 79.9974 113.915 79.779Z" fill="black"/>
<path d="M123.673 79.4665C124.325 79.2485 124.639 78.4318 124.376 77.6425C124.111 76.8532 123.369 76.3904 122.716 76.6087C122.064 76.8271 121.749 77.6438 122.013 78.4328C122.277 79.2221 123.02 79.6849 123.673 79.4665Z" fill="black"/>
<path d="M119.941 81.1566C119.941 81.1566 116.694 82.9991 116.497 81.0874C116.435 80.498 115.641 74.7245 115.641 74.7245C115.641 74.7245 113.017 71.9441 108.996 73.9993" stroke="black" stroke-width="2" stroke-miterlimit="10"/>
<path d="M119.211 73.1112C119.211 73.1112 124.454 70.4922 127.924 74.2669" stroke="black" stroke-width="2" stroke-miterlimit="10"/>
<path d="M124.019 94.0391L124.621 97.1296C122.722 98.8798 121.379 101.389 121.771 104.031C122.12 106.373 124.037 108.554 126.002 109.781C129.287 111.831 133.657 111.67 137.193 110.365C140.65 109.084 143.641 106.652 145.809 103.685C146.83 102.25 147.51 100.602 147.797 98.8644V98.8337" stroke="black" stroke-width="2" stroke-miterlimit="10"/>
<path d="M124.621 97.1328L125.795 102.714" stroke="black" stroke-width="2" stroke-miterlimit="10"/>
<path d="M141.219 82.9219L142.992 94.697C143.167 95.8497 143.749 96.9014 144.634 97.6607C145.519 98.4202 146.646 98.8372 147.812 98.8356C153.331 99.73 158.776 101.035 164.1 102.741C184.901 109.45 197.703 128.188 201.319 149.124C202.824 157.891 202.936 167.085 201.048 175.803C199.974 180.711 198.421 186.223 194.815 189.898C190.134 194.69 182.948 192.716 177.415 190.551C160.238 183.87 145.952 171.985 133.615 158.378C127.019 151.1 118.496 145.267 118.496 145.267" stroke="black" stroke-width="2" stroke-miterlimit="10"/>
<path d="M51.7904 178.5C49.8633 178.482 48.1848 176.927 47.7517 174.761C46.8958 170.502 46.6703 163.916 52.9154 162.479C60.7185 160.685 66.7201 169.182 69.662 174.554C70.6511 176.347 69.5313 178.654 67.6888 178.654L51.7904 178.5Z" fill="#FFDFD6"/>
<path d="M54.3678 158.87C56.0243 157.767 56.0499 154.894 54.4244 152.451C52.7992 150.009 50.1387 148.922 48.482 150.025C46.8253 151.127 46.7999 154.001 48.4251 156.443C50.0506 158.886 52.7111 159.972 54.3678 158.87Z" fill="#FFDFD6"/>
<path d="M182.604 197.103C182.483 197.121 182.347 197.139 182.229 197.167H182.183L163.956 197.072L136.605 196.931C136.5 196.931 136.397 196.931 136.295 196.931C136.092 196.926 135.889 196.911 135.688 196.885C137.541 196.67 139.258 195.808 140.538 194.451C141.819 193.094 142.579 191.329 142.686 189.467C142.691 189.37 142.691 189.274 142.686 189.177V189.028C142.679 187.206 142.044 185.442 140.888 184.033C139.732 182.624 138.127 181.656 136.341 181.292C136.154 181.246 135.949 181.218 135.752 181.189C136.062 181.161 136.369 181.141 136.669 181.141L159.776 181.264L164.03 181.282L169.768 181.31C171.732 181.489 173.559 182.395 174.891 183.85C176.223 185.305 176.965 187.204 176.971 189.177C176.971 189.549 176.943 189.921 176.886 190.289C176.613 192.167 175.675 193.885 174.243 195.13C172.81 196.375 170.979 197.064 169.081 197.072H182.965C182.165 197.072 182.388 197.072 182.604 197.103Z" fill="white"/>
<path d="M145.631 206.637C146.152 207.16 146.771 207.575 147.453 207.858C148.136 208.14 148.868 208.284 149.606 208.282H136.183C133.62 208.282 132.221 207.657 131.201 206.637C130.153 205.584 129.563 204.16 129.559 202.675C129.559 199.6 132.08 197.078 136.183 197.078H149.606C148.498 197.076 147.414 197.404 146.492 198.019C145.57 198.633 144.851 199.508 144.427 200.532C144.003 201.556 143.892 202.682 144.109 203.769C144.325 204.856 144.86 205.854 145.644 206.637H145.631Z" fill="#FFDFD6"/>
<path d="M189.962 189.321C189.959 190.504 189.683 191.671 189.157 192.731C188.782 193.533 188.266 194.261 187.635 194.881C186.595 195.913 185.288 196.634 183.86 196.965C183.272 197.101 182.67 197.17 182.067 197.17C182.19 197.142 182.323 197.124 182.441 197.106C182.226 197.085 182.003 197.078 182.805 197.078H168.918C170.817 197.07 172.65 196.381 174.084 195.136C175.517 193.89 176.456 192.171 176.729 190.292C176.785 189.924 176.814 189.552 176.813 189.18C176.807 187.207 176.066 185.307 174.733 183.852C173.4 182.397 171.572 181.491 169.607 181.312L177.103 181.351L182.11 181.379C184.203 181.397 186.203 182.242 187.674 183.73C189.146 185.218 189.968 187.228 189.962 189.321Z" fill="#FF7752"/>
<path d="M189.961 189.313C189.945 191.407 189.101 193.409 187.612 194.881C186.123 196.353 184.111 197.175 182.017 197.167L136.423 196.931C136.118 196.931 135.813 196.908 135.506 196.878C137.428 196.66 139.203 195.745 140.495 194.305C141.787 192.866 142.507 191.003 142.517 189.069C142.527 187.135 141.827 185.264 140.55 183.811C139.273 182.358 137.508 181.425 135.588 181.187C135.893 181.155 136.199 181.139 136.505 181.141L182.099 181.376C184.193 181.391 186.195 182.234 187.669 183.721C189.142 185.209 189.966 187.219 189.961 189.313Z" stroke="black" stroke-width="2" stroke-linecap="square" stroke-linejoin="round"/>
<path d="M176.808 189.174C176.804 191.267 175.971 193.274 174.49 194.754C173.01 196.235 171.003 197.068 168.91 197.072H136.47C136.164 197.07 135.857 197.053 135.553 197.021C137.473 196.793 139.243 195.868 140.528 194.422C141.812 192.976 142.522 191.109 142.522 189.175C142.522 187.241 141.812 185.374 140.528 183.928C139.243 182.483 137.473 181.558 135.553 181.33C135.858 181.302 136.165 181.281 136.47 181.281H168.91C171.002 181.286 173.008 182.119 174.488 183.598C175.968 185.077 176.802 187.082 176.808 189.174Z" stroke="black" stroke-width="2" stroke-linecap="square" stroke-linejoin="round"/>
<path d="M129.559 202.675C129.558 203.41 129.703 204.137 129.984 204.817C130.266 205.495 130.678 206.112 131.199 206.631C132.224 207.656 133.615 208.279 136.18 208.279H182.802C182 208.279 182.217 208.264 182.435 208.243C181.071 208.083 179.813 207.427 178.901 206.4C177.988 205.374 177.484 204.048 177.484 202.675C177.484 201.301 177.988 199.976 178.901 198.949C179.813 197.923 181.071 197.267 182.435 197.106C182.217 197.086 182 197.07 182.802 197.07H136.18C132.075 197.073 129.559 199.594 129.559 202.675Z" stroke="black" stroke-width="2" stroke-linecap="square" stroke-linejoin="round"/>
<path d="M143.986 202.675C143.99 204.16 144.581 205.584 145.632 206.634C146.682 207.684 148.105 208.276 149.591 208.279H181.785C182 208.279 182.218 208.264 182.436 208.243C181.071 208.083 179.814 207.427 178.901 206.4C177.988 205.374 177.484 204.048 177.484 202.675C177.484 201.301 177.988 199.976 178.901 198.949C179.814 197.923 181.071 197.267 182.436 197.106C182.218 197.086 182 197.07 181.785 197.07H149.591C148.106 197.074 146.682 197.666 145.632 198.716C144.582 199.766 143.99 201.19 143.986 202.675Z" stroke="black" stroke-width="2" stroke-linecap="square" stroke-linejoin="round"/>
<path d="M91.7988 159.916H77.4175C76.7594 159.914 76.1159 159.722 75.5655 159.361C75.015 159.001 74.5812 158.489 74.3167 157.886C74.2147 157.662 74.1709 157.415 74.1899 157.169C74.2086 156.924 74.2893 156.687 74.4243 156.481C74.5594 156.275 74.7444 156.106 74.9622 155.99C75.18 155.875 75.4232 155.817 75.6698 155.82H90.9582C90.2381 157.033 90.6046 158.716 91.7988 159.916Z" fill="#FFDFD6"/>
<path d="M101.098 158.434C101.097 158.826 100.941 159.202 100.664 159.479C100.387 159.756 100.011 159.912 99.6194 159.913H91.7983C90.6042 158.716 90.2377 157.032 90.9578 155.812H97.864C98.5213 155.813 99.1643 156.004 99.7152 156.362C100.266 156.72 100.701 157.231 100.967 157.832C101.05 158.022 101.094 158.227 101.098 158.434Z" fill="#FF7752"/>
<path d="M97.5001 159.916C97.4596 159.994 97.4125 160.068 97.3592 160.139C96.3341 161.54 94.1072 161.676 92.3775 160.41C92.173 160.259 91.9795 160.094 91.7983 159.916C90.6042 158.719 90.2377 157.035 90.9578 155.815C90.9983 155.737 91.0454 155.663 91.0987 155.592C92.1238 154.18 94.3404 154.055 96.0702 155.311C96.2785 155.466 96.4746 155.638 96.657 155.823C97.8409 157.015 98.2099 158.688 97.5001 159.916Z" fill="white"/>
<path d="M104.715 167.46C104.712 167.852 104.555 168.228 104.276 168.504C103.998 168.781 103.621 168.936 103.229 168.936H88.1375C88.8653 167.711 88.5014 166.04 87.3047 164.836H101.481C102.139 164.836 102.783 165.028 103.334 165.388C103.885 165.748 104.32 166.26 104.584 166.863C104.669 167.051 104.713 167.254 104.715 167.46Z" fill="#FF7752"/>
<path d="M88.1377 168.936H81.0367C80.3794 168.937 79.736 168.746 79.185 168.388C78.634 168.029 78.1992 167.518 77.9334 166.917C77.8496 166.729 77.8053 166.526 77.8027 166.32C77.8025 166.126 77.8404 165.934 77.9145 165.755C77.9885 165.575 78.0972 165.413 78.2343 165.275C78.3714 165.138 78.5344 165.03 78.7135 164.955C78.8929 164.881 79.0848 164.843 79.2788 164.844H87.3049C88.5016 166.04 88.8732 167.711 88.1377 168.936Z" fill="#FFDFD6"/>
<path d="M88.1358 168.936C88.1025 169.016 88.0585 169.092 88.0052 169.161C86.9801 170.571 84.7609 170.699 83.0337 169.441C82.8246 169.285 82.6278 169.114 82.4443 168.928C81.2578 167.731 80.8939 166.061 81.6038 164.828C81.6448 164.749 81.6919 164.674 81.7447 164.603C82.7698 163.201 84.9967 163.065 86.7239 164.333C86.9296 164.483 87.1231 164.648 87.303 164.828C88.4997 166.04 88.8713 167.711 88.1358 168.936Z" fill="white"/>
<path d="M93.164 177.905H84.1283C83.4712 177.904 82.8285 177.713 82.2778 177.355C81.7269 176.996 81.2917 176.486 81.025 175.886C80.9232 175.661 80.8799 175.414 80.8989 175.168C80.9181 174.921 80.9988 174.684 81.1339 174.477C81.2692 174.271 81.4542 174.101 81.672 173.985C81.8901 173.869 82.1335 173.81 82.3806 173.813H92.3235C91.6111 175.04 91.9775 176.708 93.164 177.905Z" fill="#FF7752"/>
<path d="M107.807 176.431C107.805 176.821 107.648 177.194 107.372 177.469C107.095 177.744 106.721 177.898 106.331 177.897H93.1642C91.9777 176.7 91.6113 175.029 92.3237 173.797H104.573C105.231 173.797 105.875 173.989 106.426 174.349C106.977 174.709 107.411 175.221 107.676 175.824C107.761 176.015 107.805 176.222 107.807 176.431Z" fill="#FFDFD6"/>
<path d="M98.8654 177.899C98.8244 177.977 98.7772 178.053 98.7244 178.124C97.6994 179.533 95.4827 179.662 93.753 178.403C93.5452 178.247 93.3491 178.076 93.1662 177.891C91.9797 176.694 91.6132 175.023 92.3256 173.791C92.3648 173.711 92.411 173.636 92.464 173.565C93.489 172.163 95.7159 172.043 97.4457 173.296C97.6512 173.445 97.8449 173.611 98.0248 173.791C99.219 175.003 99.5829 176.684 98.8654 177.899Z" fill="white"/>
<path d="M30.6016 96.2031L30.8271 96.2672L30.7425 96.5952C30.6889 96.4671 30.6418 96.3361 30.6016 96.2031Z" fill="#353642"/>
<path d="M70.7053 116.702C74.0787 115.712 75.851 111.632 74.6642 107.589C73.4775 103.546 69.7809 101.072 66.4078 102.062C63.0344 103.052 61.2621 107.132 62.4488 111.175C63.6356 115.218 67.3321 117.692 70.7053 116.702Z" fill="#FFDFD6"/>
</svg>
