<svg width="491" height="342" viewBox="0 0 491 342" fill="none" xmlns="http://www.w3.org/2000/svg">
<path d="M447.863 36.7559H350.02C345.038 36.7559 341 40.7942 341 45.7758V185.688C341 190.67 345.038 194.708 350.02 194.708H447.863C452.844 194.708 456.883 190.67 456.883 185.688V45.7758C456.883 40.7942 452.844 36.7559 447.863 36.7559Z" stroke="#ECECEC" stroke-width="2.5" stroke-miterlimit="10"/>
<path d="M443.638 53.0283H355.428C352.937 53.0283 350.918 55.0475 350.918 57.5383V76.2991C350.918 78.7899 352.937 80.8091 355.428 80.8091H443.638C446.129 80.8091 448.148 78.7899 448.148 76.2991V57.5383C448.148 55.0475 446.129 53.0283 443.638 53.0283Z" stroke="#ECECEC" stroke-width="2.5" stroke-miterlimit="10"/>
<path d="M398.943 64.7312C400.53 64.7312 401.816 63.4449 401.816 61.8583C401.816 60.2717 400.53 58.9854 398.943 58.9854C397.357 58.9854 396.07 60.2717 396.07 61.8583C396.07 63.4449 397.357 64.7312 398.943 64.7312Z" fill="#FFDFD6"/>
<path d="M390.914 74.8581C390.914 72.7288 391.76 70.6869 393.266 69.1816C394.771 67.6757 396.813 66.8301 398.942 66.8301C401.071 66.8301 403.113 67.6757 404.619 69.1816C406.124 70.6869 406.97 72.7288 406.97 74.8581H390.914Z" fill="#FFDFD6"/>
<path d="M399.529 110.585C396.469 110.586 393.477 111.495 390.933 113.196C388.388 114.897 386.406 117.314 385.235 120.142C384.065 122.97 383.759 126.082 384.357 129.083C384.955 132.085 386.428 134.842 388.593 137.006C390.758 139.17 393.515 140.643 396.517 141.24C399.519 141.837 402.631 141.53 405.458 140.358C408.286 139.186 410.702 137.203 412.403 134.658C414.103 132.113 415.01 129.121 415.01 126.061C415.01 124.028 414.61 122.015 413.832 120.137C413.054 118.259 411.914 116.553 410.476 115.116C409.038 113.679 407.332 112.539 405.453 111.761C403.575 110.984 401.562 110.584 399.529 110.585ZM399.529 137.802C398.948 137.773 398.4 137.522 397.999 137.101C397.598 136.68 397.374 136.121 397.374 135.539C397.374 134.957 397.598 134.397 397.999 133.976C398.4 133.555 398.948 133.304 399.529 133.276C400.11 133.304 400.658 133.555 401.059 133.976C401.46 134.397 401.684 134.957 401.684 135.539C401.684 136.121 401.46 136.68 401.059 137.101C400.658 137.522 400.11 137.773 399.529 137.802ZM402.386 120.396C401.909 123.752 401.508 127.275 400.505 130.538C400.266 131.324 398.792 131.324 398.553 130.538C397.847 128.085 397.304 125.588 396.927 123.063C396.618 121.226 395.545 118.25 396.569 116.466C397.475 114.84 400.022 114.678 401.502 115.512C403.318 116.537 402.603 118.727 402.386 120.396Z" fill="#FFDFD6"/>
<path d="M230.193 68.1146C224.767 66.4965 218.983 66.5242 213.573 68.1932C208.162 69.8627 203.369 73.0989 199.798 77.4928C196.227 81.8868 194.039 87.2408 193.511 92.8783C192.984 98.5152 194.139 104.182 196.832 109.163C199.525 114.143 203.635 118.214 208.641 120.859C213.647 123.503 219.325 124.604 224.957 124.022C230.589 123.439 235.922 121.2 240.281 117.587C244.64 113.974 247.83 109.149 249.447 103.723C250.522 100.12 250.875 96.3415 250.489 92.6023C250.103 88.8632 248.984 85.2368 247.196 81.9302C245.408 78.6236 242.986 75.7018 240.069 73.3314C237.151 70.9604 233.796 69.1879 230.193 68.1146ZM215.812 116.358C214.778 116.017 213.918 115.286 213.414 114.321C212.91 113.356 212.802 112.232 213.114 111.189C213.425 110.145 214.13 109.264 215.08 108.733C216.03 108.201 217.15 108.06 218.203 108.341C218.744 108.485 219.25 108.737 219.692 109.08C220.134 109.424 220.503 109.852 220.776 110.341C221.049 110.829 221.222 111.368 221.283 111.924C221.345 112.48 221.294 113.044 221.134 113.58C220.974 114.116 220.708 114.616 220.352 115.048C219.996 115.479 219.557 115.835 219.06 116.094C218.564 116.353 218.021 116.51 217.463 116.556C216.905 116.601 216.344 116.534 215.812 116.358ZM230.068 87.011C227.45 92.708 224.87 98.7412 221.395 103.994C220.561 105.262 217.942 104.482 217.937 102.964C217.981 98.2468 218.343 93.5385 219.021 88.8702C219.444 85.4606 219.113 79.6172 221.872 76.9936C224.322 74.6465 228.919 75.6547 231.115 77.9097C233.754 80.6634 231.337 84.1705 230.068 87.011Z" fill="#FF7752"/>
<path d="M150.239 131.497C148.254 133.517 146.912 136.08 146.384 138.863C145.856 141.645 146.164 144.522 147.271 147.129C148.378 149.737 150.232 151.957 152.601 153.51C154.969 155.063 157.744 155.879 160.577 155.855C163.409 155.83 166.17 154.967 168.512 153.374C170.853 151.78 172.67 149.528 173.731 146.903C174.793 144.277 175.052 141.395 174.476 138.622C173.901 135.849 172.515 133.309 170.496 131.323C167.786 128.661 164.13 127.183 160.332 127.215C156.533 127.248 152.903 128.788 150.239 131.497ZM168.203 149.152C168.011 149.348 167.781 149.504 167.528 149.611C167.275 149.719 167.003 149.776 166.729 149.778C166.454 149.78 166.181 149.729 165.926 149.626C165.672 149.524 165.44 149.371 165.243 149.179C165.047 148.986 164.891 148.757 164.784 148.504C164.676 148.251 164.619 147.979 164.617 147.704C164.615 147.43 164.666 147.157 164.769 146.902C164.871 146.647 165.024 146.415 165.216 146.219C165.605 145.823 166.136 145.598 166.691 145.592C167.246 145.588 167.78 145.803 168.176 146.192C168.572 146.581 168.797 147.111 168.803 147.666C168.807 148.221 168.592 148.755 168.203 149.152ZM158.571 135.985C160.473 138.478 162.538 141.032 164.04 143.807C164.403 144.474 163.449 145.433 162.777 145.097C160.707 143.967 158.715 142.699 156.814 141.303C155.399 140.321 152.743 139.096 152.228 137.259C151.762 135.633 153.312 133.822 154.798 133.394C156.624 132.863 157.606 134.754 158.571 135.985Z" fill="#FF7752"/>
<path d="M360.645 93.2119H436.246" stroke="#ECECEC" stroke-width="2.5" stroke-miterlimit="10"/>
<path d="M360.645 100.653H436.246" stroke="#ECECEC" stroke-width="2.5" stroke-miterlimit="10"/>
<path d="M360.645 148.572H436.246" stroke="#ECECEC" stroke-width="2.5" stroke-miterlimit="10"/>
<path d="M378.203 155.614H418.685" stroke="#ECECEC" stroke-width="2.5" stroke-miterlimit="10"/>
<path d="M456.891 138.804C463.558 147.184 469.9 157.57 475.635 170.368C510.555 248.35 466.908 287.926 466.908 287.926" stroke="#9F9F9F" stroke-width="2.5" stroke-miterlimit="10"/>
<path d="M92.1629 200.639C92.1629 200.639 40.3469 141.863 104.961 112.759C169.575 83.6559 182.368 79.6121 177.706 49.3378C173.044 19.0635 209.688 -11.7637 267.315 8.60707C324.942 28.9779 326.096 67.3669 322.009 97.0449C319.689 113.963 329.289 118.028 340.981 117.177" stroke="#9F9F9F" stroke-width="2.5" stroke-miterlimit="10"/>
<path d="M453.233 313.29C453.101 316.535 452.261 319.712 450.772 322.598C450.713 322.741 450.644 322.881 450.566 323.015C447.953 327.709 444.298 331.741 439.882 334.8L439.725 334.908C435.738 337.574 431.254 339.409 426.542 340.301H476.704C476.704 340.301 469.993 244.6 408.317 198.037C348.631 152.98 292.749 174.695 289.204 176.148C290.302 179.249 290.793 182.532 290.651 185.819C290.651 185.819 295.14 188.155 295.888 196.519C296.636 204.883 298.197 228.137 283.187 232.517C283.187 232.517 269.711 232.187 266.15 227.015C262.589 221.844 261.732 222.896 260.334 224.208C259.25 225.199 252.707 228.745 249.688 230.371C250.069 230.389 250.448 230.442 250.82 230.528C250.82 230.528 252.55 245.12 273.706 267.99C274.423 268.745 275.1 269.538 275.734 270.364C278.928 273.158 282.519 276.009 286.505 278.918L310.648 296.584C311.193 297.047 311.839 297.376 312.534 297.543C313.885 297.884 315.297 297.897 316.654 297.581C319.462 297.039 338.635 295.082 351.043 293.847C351.325 293.847 351.623 293.792 351.899 293.76L353.525 293.603C353.786 293.603 354.067 293.548 354.295 293.532L355.759 293.391C356.474 293.321 357.119 293.25 357.716 293.201L359.342 293.044C360.778 292.903 361.629 292.817 361.7 292.817C364.656 292.733 367.602 292.446 370.519 291.96C373.311 291.418 375.858 290.545 376.52 289.098C376.645 288.793 376.692 288.461 376.655 288.133C376.506 287.212 376.121 286.346 375.539 285.618C372.991 282.198 367.072 279.265 366.638 279.054C366.625 279.049 366.612 279.049 366.6 279.054L366.481 278.967L331.247 251.593H331.209C331.209 251.593 336.515 194.979 384.873 208.91C384.873 208.91 385.101 209.068 385.518 209.415C387.404 210.867 393.34 215.681 402.067 224.674C402.295 224.918 402.539 225.162 402.783 225.422C403.71 226.365 404.62 227.346 405.526 228.306C411.651 234.854 418.898 243.196 426.894 253.598L426.948 253.652C436.109 265.578 442.711 276.506 447.004 286.176V286.209C451.65 296.719 453.607 305.723 453.222 312.906C453.234 313.033 453.238 313.162 453.233 313.29ZM307.379 215.984C305.948 199.489 313.976 193.516 314.426 193.185C303.01 213.838 324.183 245.494 324.926 246.719C324.319 246.21 308.81 232.474 307.379 215.984Z" fill="#353642"/>
<path d="M277.06 212.748C276.466 213.185 275.847 213.586 275.207 213.951L271.488 207.446C280.063 203.061 282.47 195.331 278.697 191.087C277.643 189.926 276.283 189.085 274.773 188.659C270.978 187.509 268.349 189.201 266.566 191.472C265.111 193.446 264.043 195.679 263.422 198.052L261.612 177.172L261.471 175.546C261.471 175.546 257.524 173.589 246.835 175.335C236.145 177.08 234.178 182.983 229.586 180.365C224.995 177.747 222.393 177.958 222.393 177.958C221.087 182.755 217.591 182.755 217.591 182.755C216.762 182.655 215.949 182.457 215.167 182.165C210.208 177.606 208.863 169.697 208.863 169.697C214.067 169.052 214.468 164.043 213.872 159.94C216.756 161.653 220.821 161.772 226.529 158.108C242.905 147.635 259.698 153.305 265.601 154.178C268.236 154.563 271.119 153.636 273.51 152.552C273.819 153.105 274.249 153.581 274.768 153.945C278.752 156.721 282.039 160.383 284.367 164.645C299.735 193.369 282.888 208.623 277.06 212.748Z" fill="#FF7752"/>
<path d="M215.715 340.311H221.894C224.537 340.308 227.071 339.257 228.94 337.388C230.808 335.519 231.86 332.985 231.863 330.342V323.426C231.863 322.795 231.739 322.171 231.497 321.589C231.256 321.006 230.902 320.477 230.456 320.031C230.009 319.586 229.48 319.233 228.898 318.992C228.315 318.751 227.69 318.628 227.06 318.628H190.102C190.104 320.101 189.814 321.559 189.252 322.919C188.689 324.279 187.863 325.515 186.822 326.556C185.78 327.597 184.544 328.422 183.183 328.984C181.823 329.547 180.364 329.835 178.892 329.833H45.3438C45.3454 332.611 46.4496 335.276 48.4145 337.24C50.379 339.205 53.0432 340.309 55.8219 340.311H236.871C237.108 340.311 237.342 340.265 237.561 340.175C237.779 340.085 237.978 339.953 238.146 339.785C238.313 339.618 238.446 339.419 238.536 339.201C238.626 338.982 238.672 338.748 238.671 338.511V327.285C238.671 325.104 239.537 323.013 241.079 321.47C242.622 319.928 244.713 319.062 246.894 319.062C249.075 319.062 251.167 319.928 252.709 321.47C254.251 323.013 255.117 325.104 255.117 327.285V338.511C255.117 338.747 255.162 338.981 255.252 339.2C255.342 339.418 255.474 339.616 255.641 339.784C255.807 339.95 256.006 340.083 256.224 340.174C256.442 340.264 256.675 340.311 256.912 340.311H476.708C476.708 340.311 469.997 244.588 408.321 198.03C348.634 152.973 292.753 174.689 289.208 176.141L289.034 176.206" stroke="black" stroke-width="2.5" stroke-miterlimit="10"/>
<path d="M227.405 199.57C227.403 200.172 227.223 200.76 226.887 201.259C226.551 201.758 226.075 202.147 225.518 202.376C224.962 202.606 224.35 202.665 223.76 202.546C223.17 202.428 222.628 202.137 222.203 201.712C221.778 201.286 221.488 200.743 221.371 200.153C221.254 199.562 221.314 198.951 221.544 198.395C221.774 197.839 222.164 197.363 222.663 197.028C223.164 196.693 223.752 196.514 224.354 196.513C224.589 196.514 224.824 196.543 225.053 196.599C224.737 196.699 224.462 196.897 224.267 197.164C224.072 197.432 223.967 197.754 223.969 198.085C223.967 198.292 224.007 198.498 224.085 198.691C224.163 198.883 224.279 199.058 224.425 199.205C224.571 199.353 224.745 199.47 224.936 199.55C225.128 199.631 225.333 199.672 225.541 199.673C225.92 199.665 226.286 199.525 226.572 199.277C226.86 199.028 227.051 198.687 227.113 198.312C227.3 198.706 227.399 199.135 227.405 199.57Z" fill="black"/>
<path d="M248.552 200.42C248.553 201.025 248.375 201.617 248.039 202.121C247.704 202.624 247.227 203.017 246.668 203.249C246.11 203.481 245.495 203.542 244.902 203.425C244.308 203.308 243.763 203.017 243.335 202.589C242.907 202.162 242.615 201.617 242.497 201.024C242.378 200.431 242.439 199.816 242.669 199.257C242.901 198.698 243.293 198.22 243.796 197.884C244.298 197.548 244.89 197.368 245.495 197.368C245.64 197.367 245.786 197.384 245.928 197.417C245.658 197.542 245.429 197.741 245.269 197.992C245.108 198.243 245.023 198.534 245.023 198.832C245.005 199.249 245.152 199.656 245.433 199.964C245.715 200.272 246.108 200.456 246.525 200.474C246.941 200.493 247.349 200.345 247.657 200.064C247.965 199.782 248.149 199.39 248.167 198.973C248.417 199.415 248.55 199.913 248.552 200.42Z" fill="black"/>
<path d="M272.94 148.259C272.587 150.633 273.026 152.715 274.772 153.95C278.756 156.726 282.043 160.389 284.372 164.651C302.704 198.904 275.205 213.979 275.205 213.979L271.487 207.474C282.193 202.01 283.287 191.31 274.772 188.686C266.256 186.062 263.421 198.08 263.421 198.08L261.469 175.557C261.469 175.557 257.523 173.6 246.834 175.346C236.144 177.091 234.176 182.994 229.585 180.376C224.994 177.758 222.392 177.969 222.392 177.969C221.086 182.767 217.589 182.767 217.589 182.767C207.344 181.46 204.938 167.285 204.938 167.285C210.136 166.635 210.537 161.626 209.946 157.528C212.825 159.241 216.895 159.366 222.603 155.696C238.979 145.223 255.772 150.899 261.67 151.771C265.746 152.362 270.424 149.869 272.94 148.259Z" stroke="black" stroke-width="2.5" stroke-linecap="round" stroke-linejoin="round"/>
<path d="M282.393 318.119L286.443 316.493L289.478 324.684L289.001 339.547L284.898 340.29L269.324 339.618C269.324 339.618 270.408 330.554 273.72 326.245C277.032 321.935 282.393 318.119 282.393 318.119Z" fill="#FF7752"/>
<path d="M211.488 187.776C211.488 187.776 215.635 180.333 224.362 181.108" stroke="black" stroke-width="2.5" stroke-miterlimit="10"/>
<path d="M241.449 181.106C241.449 181.106 251.423 178.867 254.914 184.413" stroke="black" stroke-width="2.5" stroke-miterlimit="10"/>
<path d="M256.904 214.802C256.904 214.802 250.942 211.349 246.578 217.155" stroke="black" stroke-width="2.5" stroke-miterlimit="10"/>
<path d="M219.229 182.3C219.229 182.3 214.985 232.229 246.636 231.308C252.056 231.151 257.444 227.589 262.594 221.86" stroke="black" stroke-width="2.5" stroke-miterlimit="10"/>
<path d="M275.204 226.402L262.59 221.859C262.59 221.859 265.718 231.855 281.21 232.619C296.702 233.384 301.9 197.829 290.517 183.524" stroke="black" stroke-width="2.5" stroke-linejoin="round"/>
<path d="M324.524 326.563C324.524 326.563 312.962 335.947 320.817 340.31" stroke="black" stroke-width="2.5" stroke-miterlimit="10"/>
<path d="M315.579 317.832C315.579 317.832 295.523 329.183 312.744 340.311" stroke="black" stroke-width="2.5" stroke-miterlimit="10"/>
<path d="M308.814 309.105C308.814 309.105 282.193 321.573 302.705 340.312" stroke="black" stroke-width="2.5" stroke-miterlimit="10"/>
<path d="M420.76 340.311C420.76 340.311 453.056 340.311 453.49 309.104C453.924 277.898 390.865 199.537 350.059 188.636C309.252 177.735 307.501 207.608 307.501 208.833C307.501 210.058 305.105 222.927 315.578 236.657C323.665 247.271 359.388 273.767 375.238 285.281C375.82 285.704 376.259 286.295 376.498 286.974C376.736 287.654 376.762 288.389 376.572 289.084C376.382 289.778 375.984 290.398 375.434 290.862C374.882 291.325 374.203 291.609 373.487 291.677L303.387 298.409H303.343C302.682 298.529 277.942 303.093 270.408 310.844C270.408 310.844 266.185 313.972 268.369 318.775C270.554 323.577 277.265 321.995 277.449 321.816" stroke="black" stroke-width="2.5" stroke-miterlimit="10"/>
<path opacity="0.26" d="M245.501 206.09C250.321 206.09 254.228 202.183 254.228 197.363C254.228 192.543 250.321 188.636 245.501 188.636C240.681 188.636 236.773 192.543 236.773 197.363C236.773 202.183 240.681 206.09 245.501 206.09Z" fill="white"/>
<path opacity="0.26" d="M223.352 205.229C228.172 205.229 232.079 201.322 232.079 196.502C232.079 191.682 228.172 187.774 223.352 187.774C218.532 187.774 214.625 191.682 214.625 196.502C214.625 201.322 218.532 205.229 223.352 205.229Z" fill="white"/>
<path d="M298.79 316.743C295.722 315.887 290.708 315.117 285.542 316.776C283.016 317.589 280.685 318.916 278.696 320.673C278.262 321.053 277.845 321.438 277.444 321.822C276.579 322.67 275.763 323.566 274.999 324.506C274.899 324.63 274.756 324.713 274.598 324.739C272.674 325.004 260.006 327.01 260.071 333.412C260.13 339.163 266.429 340.106 268.597 340.258C268.687 340.266 268.777 340.256 268.862 340.228C268.947 340.199 269.025 340.153 269.092 340.093C269.159 340.033 269.213 339.96 269.249 339.878C269.287 339.797 269.306 339.708 269.307 339.618C269.307 337.569 269.774 331.146 274.842 324.684" stroke="black" stroke-width="2.5" stroke-miterlimit="10"/>
<path d="M184.653 271.561C186.138 283.535 176.831 288.95 166.656 289.752" stroke="black" stroke-width="2.5" stroke-miterlimit="10"/>
<path d="M151.867 287.255C147.987 285.159 144.845 281.922 142.865 277.982C140.885 274.042 140.164 269.589 140.798 265.225C142.424 253.706 152.181 244.871 161.733 239.266C181.789 227.497 226.986 236.013 234.581 237.748C240.402 239.081 245.27 234.528 247.243 232.327C247.327 232.234 247.436 232.166 247.557 232.133C247.677 232.1 247.805 232.102 247.925 232.139C248.045 232.176 248.152 232.246 248.233 232.342C248.313 232.438 248.365 232.555 248.382 232.68C252.55 257.072 300.962 290.182 312.161 297.592" stroke="black" stroke-width="2.5" stroke-miterlimit="10"/>
<path d="M196.865 263.28L180.836 273.227C179.881 273.821 178.812 274.21 177.698 274.366C176.583 274.522 175.449 274.442 174.367 274.133C173.285 273.823 172.28 273.29 171.417 272.569C170.553 271.847 169.851 270.952 169.355 269.942C168.461 268.128 168.284 266.043 168.859 264.104C169.433 262.165 170.718 260.514 172.456 259.48L196.849 244.947" stroke="black" stroke-width="2.5" stroke-miterlimit="10"/>
<path d="M245.501 206.09C250.321 206.09 254.228 202.183 254.228 197.363C254.228 192.543 250.321 188.636 245.501 188.636C240.681 188.636 236.773 192.543 236.773 197.363C236.773 202.183 240.681 206.09 245.501 206.09Z" stroke="black" stroke-width="2.5" stroke-miterlimit="10"/>
<path d="M223.351 203.923C227.449 203.923 230.771 200.6 230.771 196.502C230.771 192.403 227.449 189.081 223.351 189.081C219.252 189.081 215.93 192.403 215.93 196.502C215.93 200.6 219.252 203.923 223.351 203.923Z" stroke="white" stroke-width="2.5" stroke-miterlimit="10"/>
<path d="M223.352 205.229C228.172 205.229 232.079 201.322 232.079 196.502C232.079 191.682 228.172 187.774 223.352 187.774C218.532 187.774 214.625 191.682 214.625 196.502C214.625 201.322 218.532 205.229 223.352 205.229Z" stroke="black" stroke-width="2.5" stroke-miterlimit="10"/>
<path d="M236.816 196.502H232.078" stroke="black" stroke-width="2.5" stroke-miterlimit="10"/>
<path d="M236.817 208.834H233.695C233.499 208.834 233.304 208.791 233.127 208.708C232.949 208.624 232.792 208.502 232.666 208.351C232.541 208.2 232.451 208.023 232.401 207.833C232.353 207.642 232.346 207.444 232.383 207.251L234.448 196.502" stroke="black" stroke-width="2.5" stroke-miterlimit="10"/>
<path d="M174.169 238.62C174.169 238.62 163.04 241.021 159.116 257.825C156.73 268.027 153.456 281.042 151.256 289.693C150.973 290.803 150.948 291.963 151.182 293.084C151.416 294.205 151.903 295.257 152.606 296.161C153.309 297.066 154.209 297.797 155.237 298.3C156.266 298.804 157.396 299.066 158.541 299.066C160.251 299.066 161.91 298.484 163.244 297.414C164.578 296.345 165.508 294.853 165.88 293.184L170.537 272.293" stroke="black" stroke-width="2.5" stroke-miterlimit="10"/>
<path d="M184.344 277.899C184.344 277.899 196.025 270.917 219.036 277.899C242.047 284.881 268.499 289.618 277.227 271.102" stroke="black" stroke-width="2.5" stroke-miterlimit="10"/>
<path d="M285.547 316.775C285.547 316.775 293.678 326.056 288.734 340.312" stroke="black" stroke-width="2.5" stroke-miterlimit="10"/>
<path d="M16.8627 201.375H145.332C149.47 201.37 153.49 202.757 156.743 205.313C159.997 207.87 162.295 211.447 163.269 215.469L183.721 300.172C184.273 302.457 184.299 304.838 183.797 307.135C183.296 309.432 182.28 311.586 180.825 313.433C179.37 315.281 177.516 316.774 175.401 317.801C173.286 318.827 170.965 319.361 168.614 319.361H40.4751C36.3451 319.365 32.3333 317.981 29.0836 315.432C25.8341 312.884 23.5347 309.317 22.5544 305.305L1.77165 220.618C1.21045 218.33 1.17673 215.945 1.67299 213.642C2.16925 211.339 3.18253 209.179 4.63619 207.326C6.0899 205.472 7.94598 203.973 10.0641 202.942C12.1823 201.911 14.507 201.376 16.8627 201.375Z" fill="#FF7752"/>
<path d="M21.5414 205.019H142.075C145.958 205.023 149.727 206.331 152.778 208.732C155.83 211.133 157.988 214.488 158.906 218.261L178.106 297.722C178.624 299.866 178.65 302.1 178.179 304.255C177.709 306.41 176.756 308.43 175.392 310.163C174.027 311.897 172.288 313.298 170.303 314.261C168.319 315.224 166.142 315.724 163.936 315.724H43.6955C39.8247 315.716 36.0676 314.413 33.0228 312.024C29.9775 309.634 27.8193 306.294 26.8915 302.536L7.37722 223.069C6.85028 220.922 6.81852 218.684 7.28437 216.523C7.75016 214.362 8.70138 212.335 10.066 210.596C11.4306 208.857 13.1728 207.451 15.1609 206.485C17.149 205.519 19.3309 205.017 21.5414 205.019Z" fill="#FF7752"/>
<path d="M16.8627 201.375H145.332C149.47 201.37 153.49 202.757 156.743 205.313C159.997 207.87 162.295 211.447 163.269 215.469L183.721 300.172C184.273 302.457 184.299 304.838 183.797 307.135C183.296 309.432 182.28 311.586 180.825 313.433C179.37 315.281 177.516 316.774 175.401 317.801C173.286 318.827 170.965 319.361 168.614 319.361H40.4751C36.3451 319.365 32.3332 317.981 29.0836 315.432C25.8341 312.884 23.5347 309.317 22.5544 305.305L1.77165 220.618C1.21045 218.33 1.17673 215.945 1.67299 213.642C2.16925 211.339 3.18253 209.179 4.63619 207.326C6.0899 205.472 7.94598 203.973 10.0641 202.942C12.1823 201.911 14.507 201.376 16.8627 201.375Z" stroke="black" stroke-width="2.5" stroke-miterlimit="10"/>
<path d="M77.0312 257.793L69.3719 222.087C69.213 221.332 68.7989 220.655 68.1999 220.169C67.6009 219.682 66.8534 219.416 66.0815 219.415H28.1804C27.6705 219.417 27.1677 219.534 26.7099 219.758C26.2521 219.983 25.8513 220.308 25.5379 220.71C25.2245 221.112 25.0068 221.581 24.9011 222.079C24.7954 222.578 24.8046 223.095 24.928 223.589L33.7907 259.712C33.9008 260.216 34.1355 260.684 34.4737 261.073C34.7773 261.459 35.1638 261.77 35.605 261.986C36.0463 262.201 36.5309 262.313 37.0214 262.314H37.0919L73.7734 261.88C74.2689 261.873 74.7562 261.757 75.2012 261.539C75.6463 261.322 76.0382 261.009 76.3482 260.623C76.6643 260.231 76.8892 259.774 77.0074 259.285C77.1256 258.795 77.1337 258.286 77.0312 257.793ZM27.4594 222.949C27.4319 222.843 27.4293 222.731 27.4519 222.622C27.4744 222.515 27.5215 222.413 27.5895 222.326C27.6591 222.235 27.7485 222.162 27.851 222.111C27.9534 222.06 28.066 222.034 28.1804 222.033H66.0815C66.2523 222.033 66.4182 222.091 66.5504 222.199C66.6832 222.306 66.7738 222.457 66.8079 222.624L72.6405 249.819C53.1641 231.015 50.9579 252.589 50.9579 252.589C39.9649 246.865 36.7884 253.131 35.8668 257.257L27.4594 222.949Z" fill="#FFDFD6"/>
<path d="M38.4043 235.911C40.5183 235.255 41.5211 232.452 40.6538 229.65C39.7865 226.847 37.3635 225.113 35.2332 225.768C33.1029 226.424 32.1163 229.227 32.989 232.024C33.8618 234.821 36.2956 236.566 38.4043 235.911Z" fill="#FFDFD6"/>
<path d="M47.6847 235.27H60.1196C61.6645 235.27 63.2148 235.27 64.7597 235.27H64.982C65.4167 235.282 65.8493 235.201 66.2504 235.032C66.5274 234.895 66.7632 234.686 66.9329 234.428C67.1031 234.17 67.2012 233.871 67.218 233.562C67.2342 233.253 67.1687 232.946 67.0272 232.67C66.8857 232.395 66.6737 232.163 66.413 231.996C66.1208 231.864 65.8547 231.68 65.627 231.454C65.4763 231.216 65.3728 230.951 65.3235 230.674C65.0362 229.889 64.4816 229.231 63.7569 228.814C63.2295 228.46 62.6364 228.215 62.012 228.095C61.3881 227.975 60.7463 227.982 60.1251 228.115C59.512 228.27 58.951 228.584 58.4989 229.026C58.114 229.405 58.0381 229.915 57.74 230.338C57.5448 230.614 57.4202 230.527 57.1545 230.376C56.8889 230.224 56.7426 230.11 56.5258 230.002C56.0981 229.773 55.6541 229.576 55.1977 229.411C54.2681 229.067 53.2766 228.921 52.2868 228.983C50.5468 229.118 48.8122 230.153 48.2051 231.79C47.6581 231.798 47.1312 232 46.7204 232.361C46.3089 232.721 46.0395 233.217 45.9609 233.758C45.9251 233.967 45.9387 234.181 46.0005 234.384C46.0628 234.586 46.1718 234.771 46.3187 234.924C46.7138 235.208 47.2017 235.331 47.6847 235.27Z" fill="#FFDFD6"/>
<path d="M136.833 234.499L135.836 230.396C135.167 227.637 133.59 225.184 131.358 223.43C129.126 221.676 126.37 220.723 123.531 220.726H109.833C108.27 220.724 106.728 221.083 105.326 221.774C103.925 222.466 102.702 223.472 101.753 224.714C100.803 225.955 100.154 227.399 99.8532 228.932C99.5529 230.466 99.6109 232.049 100.022 233.556L101.155 237.725C101.878 240.407 103.466 242.775 105.672 244.464C107.878 246.152 110.579 247.066 113.357 247.065H126.973C128.511 247.063 130.029 246.713 131.412 246.039C132.794 245.366 134.007 244.387 134.956 243.177C135.905 241.967 136.568 240.558 136.893 239.054C137.218 237.551 137.198 235.994 136.833 234.499ZM121.769 235.513L117.091 238.391C116.911 238.506 116.707 238.577 116.495 238.6C116.282 238.622 116.067 238.595 115.867 238.52C115.667 238.446 115.487 238.325 115.341 238.17C115.195 238.014 115.087 237.826 115.026 237.622L113.264 231.865C113.191 231.61 113.191 231.338 113.265 231.083C113.339 230.828 113.485 230.598 113.683 230.423C113.883 230.246 114.128 230.13 114.391 230.089C114.654 230.046 114.923 230.08 115.167 230.185L121.656 233.052C121.888 233.157 122.087 233.323 122.231 233.532C122.374 233.742 122.458 233.987 122.472 234.241C122.486 234.496 122.43 234.748 122.31 234.973C122.19 235.197 122.01 235.384 121.791 235.513H121.769Z" fill="white"/>
<path d="M133.775 271.36H109.81C108.713 271.358 107.64 271.037 106.722 270.437C105.804 269.837 105.08 268.982 104.639 267.977C104.502 267.668 104.428 267.334 104.422 266.996C104.428 266.342 104.691 265.717 105.155 265.257C105.619 264.796 106.245 264.537 106.899 264.535H132.376C131.178 266.562 131.785 269.365 133.775 271.36Z" fill="#FFDFD6"/>
<path d="M149.302 268.899C149.3 269.551 149.04 270.176 148.579 270.638C148.118 271.099 147.493 271.359 146.841 271.36H133.777C131.787 269.365 131.18 266.562 132.378 264.535H143.881C144.976 264.536 146.048 264.854 146.966 265.452C147.884 266.049 148.608 266.9 149.052 267.901C149.202 268.214 149.287 268.553 149.302 268.899Z" fill="#FF7752"/>
<path d="M143.279 271.36C143.212 271.491 143.133 271.616 143.046 271.734C141.333 274.071 137.626 274.287 134.747 272.184C134.403 271.935 134.079 271.66 133.777 271.36C131.787 269.366 131.18 266.563 132.378 264.536C132.446 264.407 132.524 264.284 132.611 264.167C134.308 261.815 138.032 261.609 140.894 263.696C141.241 263.951 141.569 264.232 141.875 264.536C143.881 266.531 144.461 269.333 143.279 271.36Z" fill="white"/>
<path d="M155.303 283.97C155.297 284.623 155.034 285.248 154.57 285.709C154.106 286.17 153.479 286.429 152.825 286.431H57.8447C59.0589 284.392 58.4518 281.601 56.457 279.611H149.914C151.01 279.611 152.083 279.93 153 280.53C153.918 281.13 154.641 281.984 155.08 282.988C155.221 283.297 155.297 283.631 155.303 283.97Z" fill="#FF7752"/>
<path d="M57.8425 286.403H46.0092C44.9137 286.404 43.842 286.086 42.9238 285.488C42.0061 284.89 41.2813 284.039 40.8379 283.037C40.6986 282.723 40.6249 282.383 40.6211 282.04C40.6206 281.716 40.6834 281.397 40.807 281.098C40.9306 280.799 41.1117 280.528 41.3404 280.3C41.5692 280.071 41.8407 279.891 42.14 279.768C42.4386 279.645 42.759 279.583 43.0821 279.584H56.4548C58.4496 281.573 59.0567 284.365 57.8425 286.403Z" fill="#FFDFD6"/>
<path d="M57.8416 286.404C57.7858 286.537 57.7131 286.663 57.6248 286.778C55.9281 289.13 52.2041 289.331 49.3366 287.244C48.9913 286.988 48.665 286.707 48.3609 286.404C46.3823 284.409 45.7752 281.623 46.9569 279.585C47.0225 279.453 47.1006 279.328 47.19 279.211C48.9029 276.874 52.6107 276.657 55.489 278.755C55.8327 279.005 56.1552 279.283 56.4539 279.585C58.4487 281.574 59.0558 284.366 57.8416 286.404Z" fill="white"/>
<path d="M66.2231 301.316H51.1863C50.0913 301.315 49.0196 300.997 48.1019 300.399C47.1842 299.802 46.4595 298.951 46.015 297.95C45.8659 297.647 45.7808 297.317 45.7656 296.98C45.7673 296.325 46.028 295.697 46.4915 295.234C46.9544 294.77 47.5821 294.509 48.2374 294.508H64.8084C63.6538 296.557 64.2446 299.343 66.2231 301.316Z" fill="#FF7752"/>
<path d="M160.457 298.893C160.448 299.544 160.182 300.164 159.716 300.618C159.251 301.072 158.624 301.323 157.974 301.316H66.2242C64.2456 299.321 63.6385 296.535 64.8202 294.497H155.069C156.165 294.497 157.237 294.816 158.155 295.416C159.072 296.015 159.795 296.87 160.234 297.874C160.378 298.195 160.453 298.542 160.457 298.893Z" fill="#FFDFD6"/>
<path d="M75.7211 301.315C75.6555 301.447 75.5775 301.572 75.488 301.689C73.7914 304.042 70.0674 304.243 67.2053 302.156C66.8584 301.9 66.5304 301.619 66.2242 301.315C64.2456 299.321 63.6385 296.534 64.8202 294.496C64.888 294.366 64.966 294.241 65.0533 294.122C66.7662 291.786 70.4739 291.58 73.3523 293.667C73.6971 293.916 74.0196 294.193 74.3172 294.496C76.312 296.507 76.9191 299.31 75.7211 301.315Z" fill="white"/>
<g opacity="0.21">
<path opacity="0.21" d="M78.3475 259.098L70.7044 223.393C70.5461 222.637 70.1325 221.96 69.533 221.474C68.934 220.988 68.1854 220.724 67.4141 220.726H29.5075C28.9942 220.726 28.4879 220.843 28.0273 221.07C27.5668 221.296 27.1645 221.625 26.8514 222.032C26.5409 222.43 26.3257 222.894 26.2224 223.388C26.119 223.883 26.1302 224.394 26.2551 224.883L35.1179 261.012C35.2263 261.515 35.4588 261.983 35.7954 262.372C36.1001 262.758 36.4882 263.07 36.93 263.284C37.3723 263.498 37.8575 263.608 38.3486 263.608H38.4353L75.1114 263.169C75.6058 263.163 76.0925 263.048 76.5365 262.832C76.981 262.615 77.3718 262.302 77.6808 261.917C77.9925 261.525 78.2136 261.069 78.3291 260.582C78.444 260.095 78.4505 259.588 78.3475 259.098ZM28.7703 224.26C28.7426 224.153 28.7405 224.04 28.7643 223.932C28.7876 223.824 28.8364 223.723 28.9058 223.636C28.9736 223.545 29.0619 223.471 29.1638 223.421C29.2652 223.37 29.3774 223.343 29.4912 223.344H67.3924C67.5631 223.343 67.729 223.4 67.8624 223.506C67.9957 223.613 68.0879 223.762 68.1242 223.929L73.9568 251.125C54.475 232.315 52.2742 253.895 52.2742 253.895C41.2866 248.17 38.1046 254.437 37.1885 258.562L28.7703 224.26Z" fill="#FFDFD6"/>
<path opacity="0.21" d="M39.7174 237.217C41.8261 236.561 42.8343 233.758 41.9616 230.961C41.0889 228.164 38.6767 226.419 36.5409 227.075C34.4052 227.73 33.4241 230.533 34.2914 233.335C35.1587 236.138 37.6359 237.894 39.7174 237.217Z" fill="#FFDFD6"/>
<path opacity="0.21" d="M49.0204 236.581H61.4499C63.0002 236.581 64.5451 236.581 66.0954 236.581H66.3122C66.7475 236.593 67.1795 236.512 67.5806 236.342C67.8593 236.206 68.0961 235.998 68.2669 235.74C68.4382 235.481 68.5374 235.182 68.5537 234.873C68.5705 234.563 68.5038 234.255 68.3612 233.979C68.2192 233.704 68.0056 233.472 67.7433 233.307C67.4538 233.17 67.1887 232.986 66.9573 232.765C66.8109 232.523 66.7085 232.257 66.6537 231.979C66.3664 231.197 65.8141 230.541 65.0926 230.125C64.5651 229.769 63.9705 229.524 63.3455 229.403C62.7205 229.283 62.0776 229.291 61.4553 229.426C60.8525 229.582 60.3023 229.896 59.8616 230.336C59.4714 230.716 59.4009 231.22 59.1028 231.648C58.9076 231.924 58.7829 231.838 58.5173 231.681C58.2517 231.523 58.1054 231.42 57.8885 231.306C57.4608 231.079 57.0169 230.884 56.5605 230.721C55.6308 230.376 54.6394 230.228 53.6496 230.287C51.9096 230.423 50.175 231.464 49.5624 233.095C49.0155 233.105 48.4897 233.308 48.0793 233.669C47.669 234.031 47.4012 234.527 47.3237 235.068C47.2885 235.277 47.3025 235.491 47.3633 235.693C47.4245 235.895 47.5313 236.08 47.676 236.234C48.0674 236.508 48.545 236.632 49.0204 236.581Z" fill="#FFDFD6"/>
<path opacity="0.21" d="M138.169 235.806L137.171 231.708C136.501 228.948 134.923 226.495 132.691 224.739C130.458 222.985 127.701 222.031 124.861 222.032H111.141C109.58 222.031 108.04 222.39 106.64 223.081C105.24 223.772 104.018 224.776 103.069 226.015C102.12 227.254 101.47 228.696 101.168 230.228C100.866 231.76 100.922 233.34 101.33 234.847L102.463 239.021C103.188 241.703 104.776 244.072 106.983 245.76C109.19 247.449 111.892 248.362 114.67 248.36H128.287C129.825 248.361 131.344 248.012 132.727 247.341C134.111 246.669 135.325 245.692 136.276 244.483C137.228 243.274 137.893 241.865 138.22 240.362C138.548 238.86 138.531 237.302 138.169 235.806ZM123.099 236.809L118.405 239.704C118.225 239.818 118.021 239.889 117.809 239.912C117.597 239.934 117.383 239.907 117.183 239.832C116.984 239.758 116.804 239.637 116.658 239.482C116.513 239.326 116.406 239.138 116.345 238.934L114.611 233.172C114.538 232.917 114.539 232.646 114.614 232.392C114.689 232.137 114.834 231.909 115.033 231.734C115.232 231.558 115.477 231.443 115.739 231.401C116.001 231.36 116.269 231.393 116.513 231.497L122.953 234.359C123.182 234.465 123.377 234.63 123.519 234.839C123.661 235.046 123.744 235.289 123.758 235.541C123.774 235.791 123.72 236.042 123.604 236.266C123.488 236.489 123.313 236.677 123.099 236.809Z" fill="#FFDFD6"/>
<path opacity="0.21" d="M135.09 272.665H111.125C110.029 272.663 108.957 272.343 108.039 271.743C107.121 271.144 106.397 270.291 105.954 269.288C105.785 268.914 105.713 268.503 105.746 268.093C105.778 267.684 105.913 267.29 106.139 266.946C106.364 266.603 106.672 266.322 107.035 266.13C107.398 265.937 107.804 265.84 108.214 265.846H133.692C132.499 267.868 133.095 270.676 135.09 272.665Z" fill="#FFDFD6"/>
<path opacity="0.21" d="M150.583 270.204C150.583 270.856 150.324 271.481 149.864 271.942C149.404 272.404 148.779 272.664 148.127 272.665H135.091C133.096 270.676 132.489 267.868 133.687 265.846H145.195C146.29 265.845 147.362 266.163 148.281 266.761C149.199 267.358 149.923 268.21 150.366 269.212C150.505 269.525 150.579 269.862 150.583 270.204Z" fill="#FF7752"/>
<path opacity="0.21" d="M144.588 272.666C144.524 272.799 144.446 272.924 144.355 273.04C142.642 275.376 138.934 275.593 136.056 273.495C135.713 273.244 135.39 272.967 135.091 272.666C133.096 270.677 132.489 267.869 133.687 265.847C133.754 265.715 133.834 265.59 133.925 265.473C135.622 263.12 139.346 262.92 142.208 265.007C142.555 265.262 142.883 265.543 143.189 265.847C145.168 267.842 145.775 270.628 144.588 272.666Z" fill="white"/>
<path opacity="0.21" d="M156.61 285.252C156.604 285.906 156.34 286.531 155.876 286.99C155.413 287.45 154.786 287.708 154.132 287.708H59.1572C60.3714 285.67 59.7643 282.883 57.7695 280.889H151.221C152.319 280.889 153.393 281.209 154.311 281.81C155.23 282.41 155.953 283.266 156.393 284.271C156.532 284.58 156.606 284.914 156.61 285.252Z" fill="#FF7752"/>
<path opacity="0.21" d="M59.1565 287.708H47.3178C46.2234 287.707 45.1523 287.39 44.2345 286.793C43.3168 286.197 42.5915 285.347 42.1465 284.347C42.0105 284.032 41.9367 283.693 41.9297 283.35C41.9297 282.697 42.1888 282.071 42.6506 281.61C43.1119 281.148 43.738 280.889 44.3907 280.889H57.7688C59.7636 282.883 60.3707 285.67 59.1565 287.708Z" fill="#FFDFD6"/>
<path opacity="0.21" d="M59.158 287.71C59.1022 287.844 59.0273 287.97 58.9357 288.084C57.2391 290.436 53.5151 290.642 50.653 288.555C50.3055 288.298 49.9776 288.015 49.6719 287.71C47.6933 285.72 47.0862 282.928 48.2733 280.89C48.3373 280.758 48.4154 280.632 48.5064 280.516C50.2193 278.18 53.9271 277.963 56.8054 280.066C57.1464 280.317 57.4689 280.593 57.7703 280.89C59.7651 282.885 60.3722 285.671 59.158 287.71Z" fill="white"/>
<path opacity="0.21" d="M67.5326 302.641H52.4741C51.3796 302.639 50.3096 302.321 49.3919 301.725C48.4747 301.129 47.7489 300.28 47.3028 299.281C47.1667 298.971 47.093 298.638 47.0859 298.3C47.0886 297.644 47.3505 297.015 47.8145 296.551C48.2785 296.087 48.9073 295.825 49.5632 295.822H66.1341C64.947 297.86 65.5541 300.652 67.5326 302.641Z" fill="#FF7752"/>
<path opacity="0.21" d="M161.773 300.197C161.773 300.519 161.708 300.838 161.584 301.135C161.46 301.433 161.278 301.703 161.05 301.93C160.821 302.157 160.55 302.337 160.252 302.459C159.954 302.581 159.634 302.643 159.312 302.641H67.5351C65.5566 300.652 64.9495 297.86 66.1366 295.822H156.38C157.477 295.822 158.551 296.142 159.469 296.743C160.388 297.344 161.111 298.199 161.551 299.205C161.692 299.517 161.767 299.855 161.773 300.197Z" fill="#FFDFD6"/>
<path opacity="0.21" d="M77.0375 302.642C76.9698 302.774 76.8901 302.899 76.799 303.016C75.1024 305.369 71.3784 305.575 68.5163 303.488C68.1688 303.231 67.8409 302.948 67.5351 302.642C65.5566 300.653 64.9495 297.861 66.1366 295.823C66.2006 295.691 66.2786 295.565 66.3697 295.449C68.0826 293.113 71.7903 292.912 74.6687 294.999C75.0097 295.25 75.3322 295.526 75.6336 295.823C77.6284 297.818 78.2355 300.621 77.0375 302.642Z" fill="white"/>
</g>
</svg>
