<svg width="142" height="24" viewBox="0 0 142 24" fill="none" xmlns="http://www.w3.org/2000/svg">
<path d="M0.132269 22.3365V8.07017H2.88346V22.3365H0.132269ZM0 5.27286V2H3.04219V5.27286H0Z" fill="#0A0A0A"/>
<path d="M6.74572 22.3365V8.07017H9.36464V11.427H9.49691V22.3365H6.74572ZM16.322 22.3365V13.1613C16.322 12.1729 16.0839 11.4363 15.6077 10.9514C15.1492 10.4665 14.4614 10.2241 13.5443 10.2241C12.7507 10.2241 12.0453 10.4106 11.428 10.7836C10.8284 11.1565 10.3522 11.6694 9.99953 12.3221C9.66445 12.9748 9.49691 13.7487 9.49691 14.6439L9.15301 11.2311C9.59391 10.1682 10.2729 9.32897 11.19 8.71356C12.107 8.09815 13.174 7.79044 14.3909 7.79044C15.837 7.79044 16.9745 8.21936 17.8034 9.07721C18.6323 9.93505 19.0467 11.0726 19.0467 12.4899V22.3365H16.322Z" fill="#0A0A0A"/>
<path d="M26.1082 22.3365L20.6058 8.07017H23.5422L28.0394 21.0217H26.7431L31.1874 8.07017H34.0179L28.542 22.3365H26.1082Z" fill="#0A0A0A"/>
<path d="M41.7319 22.6162C40.3739 22.6162 39.1747 22.2992 38.1342 21.6651C37.1113 21.0311 36.3089 20.1546 35.7269 19.0356C35.1449 17.9167 34.8539 16.63 34.8539 15.1754C34.8539 13.7021 35.1361 12.4153 35.7004 11.3151C36.2824 10.1961 37.0937 9.32897 38.1342 8.71356C39.1747 8.09815 40.3651 7.79044 41.7054 7.79044C43.0105 7.79044 44.1392 8.08882 45.0915 8.68558C46.0615 9.26369 46.8022 10.0749 47.3136 11.1192C47.8427 12.1636 48.1072 13.4037 48.1072 14.8397C48.1072 15.0635 48.0984 15.2779 48.0808 15.4831C48.0808 15.6695 48.0632 15.8654 48.0279 16.0705H36.7057V13.8886H46.0968L45.409 14.7558C45.409 13.2266 45.0827 12.061 44.4302 11.2591C43.7776 10.4572 42.8694 10.0563 41.7054 10.0563C40.4533 10.0563 39.4569 10.5132 38.7162 11.427C37.9931 12.3221 37.6315 13.5716 37.6315 15.1754C37.6315 16.7978 37.9931 18.0659 38.7162 18.9797C39.4569 19.8935 40.4797 20.3504 41.7848 20.3504C42.5784 20.3504 43.2662 20.1825 43.8482 19.8469C44.4302 19.4925 44.8623 18.9797 45.1444 18.3083H47.7369C47.296 19.6511 46.5465 20.7047 45.4883 21.4693C44.4478 22.2339 43.1957 22.6162 41.7319 22.6162Z" fill="#0A0A0A"/>
<path d="M55.8406 22.6162C54.0771 22.6162 52.675 22.2059 51.6345 21.3854C50.594 20.5648 50.0032 19.4086 49.8621 17.9167H52.4016C52.5251 18.7373 52.8778 19.3713 53.4598 19.8189C54.0594 20.2478 54.8707 20.4623 55.8935 20.4623C56.793 20.4623 57.4808 20.2944 57.9569 19.9588C58.4331 19.6231 58.6712 19.1475 58.6712 18.5321C58.6712 18.0846 58.5301 17.7116 58.2479 17.4132C57.9834 17.0962 57.4543 16.8351 56.6607 16.63L54.4915 16.0985C53.1335 15.7441 52.1195 15.222 51.4493 14.532C50.7968 13.8233 50.4705 12.9561 50.4705 11.9305C50.4705 10.6437 50.9202 9.63667 51.8197 8.90937C52.7367 8.16342 53.9889 7.79044 55.5761 7.79044C57.1457 7.79044 58.4067 8.16342 59.359 8.90937C60.329 9.65532 60.8757 10.6996 60.9991 12.0424H58.4596C58.3538 11.371 58.0451 10.8582 57.5337 10.5038C57.0399 10.1309 56.3609 9.94437 55.4967 9.94437C54.6855 9.94437 54.0594 10.1029 53.6185 10.4199C53.1953 10.7183 52.9836 11.1379 52.9836 11.6787C52.9836 12.1263 53.1424 12.4993 53.4598 12.7976C53.7949 13.096 54.3416 13.3478 55.0999 13.5529L57.322 14.1403C58.6095 14.476 59.5794 15.0262 60.232 15.7908C60.8845 16.5367 61.2108 17.4412 61.2108 18.5042C61.2108 19.7909 60.7346 20.798 59.7823 21.5253C58.8476 22.2526 57.5337 22.6162 55.8406 22.6162Z" fill="#0A0A0A"/>
<path d="M69.4755 22.6162C67.9059 22.6162 66.7508 22.2339 66.0101 21.4693C65.287 20.6861 64.9255 19.5392 64.9255 18.0286V4.79732L67.6502 3.70636V18.0566C67.6502 18.8025 67.8354 19.3527 68.2057 19.707C68.5761 20.0613 69.1757 20.2385 70.0046 20.2385C70.322 20.2385 70.6042 20.2105 70.8511 20.1546C71.098 20.0986 71.3096 20.0334 71.486 19.9588V22.3085C71.292 22.4017 71.0186 22.4763 70.6659 22.5323C70.3132 22.5882 69.9164 22.6162 69.4755 22.6162ZM62.2272 10.3919V8.07017H71.486V10.3919H62.2272Z" fill="#0A0A0A"/>
<path d="M74.0944 22.3365V8.07017H76.7133V11.427H76.8456V22.3365H74.0944ZM83.1945 22.3365V13.0214C83.1945 12.0517 82.9828 11.343 82.5596 10.8955C82.1363 10.4479 81.5279 10.2241 80.7343 10.2241C79.9936 10.2241 79.3234 10.4106 78.7238 10.7836C78.1418 11.1379 77.6833 11.6414 77.3482 12.2941C77.0131 12.9282 76.8456 13.6835 76.8456 14.5599L76.5017 11.2311C76.9426 10.1682 77.6039 9.32897 78.4857 8.71356C79.3851 8.09815 80.3904 7.79044 81.5014 7.79044C82.8418 7.79044 83.9087 8.20071 84.7023 9.02126C85.5136 9.84181 85.9192 10.9234 85.9192 12.2661V22.3365H83.1945ZM92.2946 22.3365V13.0214C92.2946 12.0517 92.0741 11.343 91.6332 10.8955C91.21 10.4479 90.6015 10.2241 89.8079 10.2241C89.0849 10.2241 88.4235 10.4106 87.8239 10.7836C87.2419 11.1379 86.7746 11.6414 86.4218 12.2941C86.0868 12.9282 85.9192 13.6835 85.9192 14.5599L85.3637 11.2311C85.8222 10.1682 86.51 9.32897 87.4271 8.71356C88.3618 8.09815 89.4023 7.79044 90.5486 7.79044C91.9066 7.79044 92.9912 8.21004 93.8024 9.04923C94.6137 9.86978 95.0193 10.9701 95.0193 12.3501V22.3365H92.2946Z" fill="#0A0A0A"/>
<path d="M104.534 22.6162C103.176 22.6162 101.977 22.2992 100.936 21.6651C99.9132 21.0311 99.1108 20.1546 98.5288 19.0356C97.9468 17.9167 97.6558 16.63 97.6558 15.1754C97.6558 13.7021 97.938 12.4153 98.5023 11.3151C99.0843 10.1961 99.8956 9.32897 100.936 8.71356C101.977 8.09815 103.167 7.79044 104.507 7.79044C105.812 7.79044 106.941 8.08882 107.893 8.68558C108.863 9.26369 109.604 10.0749 110.116 11.1192C110.645 12.1636 110.909 13.4037 110.909 14.8397C110.909 15.0635 110.9 15.2779 110.883 15.4831C110.883 15.6695 110.865 15.8654 110.83 16.0705H99.5076V13.8886H108.899L108.211 14.7558C108.211 13.2266 107.885 12.061 107.232 11.2591C106.58 10.4572 105.671 10.0563 104.507 10.0563C103.255 10.0563 102.259 10.5132 101.518 11.427C100.795 12.3221 100.433 13.5716 100.433 15.1754C100.433 16.7978 100.795 18.0659 101.518 18.9797C102.259 19.8935 103.282 20.3504 104.587 20.3504C105.38 20.3504 106.068 20.1825 106.65 19.8469C107.232 19.4925 107.664 18.9797 107.946 18.3083H110.539C110.098 19.6511 109.348 20.7047 108.29 21.4693C107.25 22.2339 105.998 22.6162 104.534 22.6162Z" fill="#0A0A0A"/>
<path d="M119.231 22.6162C117.662 22.6162 116.507 22.2339 115.766 21.4693C115.043 20.6861 114.681 19.5392 114.681 18.0286V4.79732L117.406 3.70636V18.0566C117.406 18.8025 117.591 19.3527 117.962 19.707C118.332 20.0613 118.932 20.2385 119.76 20.2385C120.078 20.2385 120.36 20.2105 120.607 20.1546C120.854 20.0986 121.065 20.0334 121.242 19.9588V22.3085C121.048 22.4017 120.774 22.4763 120.422 22.5323C120.069 22.5882 119.672 22.6162 119.231 22.6162ZM111.983 10.3919V8.07017H121.242V10.3919H111.983Z" fill="#0A0A0A"/>
<path d="M123.799 22.3365V8.07017H126.55V22.3365H123.799ZM123.666 5.27286V2H126.708V5.27286H123.666Z" fill="#0A0A0A"/>
<path d="M135.969 22.6162C134.681 22.6162 133.535 22.2992 132.53 21.6651C131.524 21.0124 130.731 20.1266 130.149 19.0077C129.584 17.8887 129.302 16.6113 129.302 15.1754C129.302 13.7394 129.584 12.4713 130.149 11.371C130.731 10.2521 131.524 9.37559 132.53 8.74153C133.535 8.10747 134.672 7.79044 135.942 7.79044C137.018 7.79044 137.979 8.0049 138.826 8.43382C139.672 8.86275 140.369 9.45951 140.915 10.2241C141.462 10.9887 141.815 11.8932 141.974 12.9375H139.381C139.205 12.0983 138.817 11.427 138.217 10.9234C137.635 10.4199 136.894 10.1682 135.995 10.1682C135.219 10.1682 134.54 10.3733 133.958 10.7836C133.376 11.1938 132.926 11.772 132.609 12.5179C132.291 13.2639 132.133 14.1497 132.133 15.1754C132.133 16.1824 132.291 17.0682 132.609 17.8328C132.926 18.5974 133.376 19.1942 133.958 19.6231C134.54 20.0334 135.228 20.2385 136.021 20.2385C136.886 20.2385 137.617 19.9961 138.217 19.5112C138.834 19.0077 139.231 18.3363 139.408 17.4971H142C141.824 18.5228 141.453 19.4179 140.889 20.1825C140.342 20.9471 139.646 21.5439 138.799 21.9728C137.953 22.4017 137.009 22.6162 135.969 22.6162Z" fill="#0A0A0A"/>
</svg>
