<svg width="234" height="210" viewBox="0 0 234 210" fill="none" xmlns="http://www.w3.org/2000/svg">
<path d="M138.127 179.469V179.556C138.127 182.209 139.181 184.754 141.057 186.63C142.933 188.506 145.478 189.56 148.131 189.56C150.785 189.56 153.329 188.506 155.205 186.63C157.082 184.754 158.136 182.209 158.136 179.556" stroke="#ECECEC" stroke-width="2" stroke-miterlimit="10"/>
<path d="M198.832 86.8797C207.15 85.1013 216.107 88.3122 222.198 94.2472C228.289 100.182 231.679 108.552 232.553 117.011C233.96 130.472 230.188 146.022 222.767 157.328" stroke="#ECECEC" stroke-width="2" stroke-miterlimit="10"/>
<path d="M124.326 32.7586C138.262 27.7359 154.967 32.1897 168.036 66.8412C172.306 78.1653 177.728 83.4981 185.367 84.1644" stroke="#ECECEC" stroke-width="2" stroke-miterlimit="10"/>
<path d="M71.0684 49.4162C71.0684 49.4162 86.6233 47.6224 86.7182 66.7112L130.262 54.0314L137.099 51.8814C137.099 51.8814 127.289 39.9807 115.973 37.9332C116.095 39.0897 116.324 40.2324 116.657 41.3466C117.241 43.3966 115.304 44.6011 112.616 45.3647C109.928 46.1284 104.485 41.6105 103.549 37.6257C103.549 37.6257 104.892 36.4136 99.8899 37.2823C94.8877 38.151 79.7094 41.6771 71.0684 49.4162Z" fill="#2E2E2E"/>
<path d="M3.53622 142.05C3.96079 142.279 4.43518 142.399 4.91746 142.401C5.35211 142.401 5.78106 142.302 6.1727 142.114C6.56432 141.925 6.90863 141.651 7.18024 141.312L16.995 129.281L24.916 119.34L18.4326 115.704C17.7607 115.325 16.9658 115.228 16.2224 115.434C15.479 115.641 14.8481 116.134 14.4683 116.806L2.38049 138.032C2.1885 138.371 2.06603 138.744 2.02027 139.131C1.97452 139.518 2.0064 139.91 2.11403 140.284C2.22166 140.658 2.40289 141.007 2.6471 141.31C2.89132 141.614 3.19358 141.865 3.53622 142.05Z" fill="#2E2E2E"/>
<path d="M152.936 198.812L161.105 206.849C161.812 207.546 162.764 207.937 163.757 207.938H184.199C185.04 207.943 185.849 207.624 186.46 207.047C187.071 206.47 187.436 205.68 187.48 204.841C187.523 204.002 187.241 203.179 186.692 202.542C186.144 201.906 185.371 201.505 184.535 201.424L173.193 200.25L152.936 198.812Z" fill="#2E2E2E"/>
<path d="M115.297 37.0181V37.5716V37.7125C119.817 38.846 124.073 40.8476 127.828 43.6065C128.435 44.0524 129.03 44.5034 129.622 44.9801C129.637 43.0684 129.473 41.149 128.853 39.3424C128.352 37.7899 127.411 36.4161 126.144 35.3883C125.03 34.499 123.71 33.9276 122.382 33.4125C121.055 32.8974 119.753 32.4464 118.539 31.7519C117.514 31.1897 116.618 30.4189 115.909 29.4892C115.662 29.1527 115.507 28.7565 115.462 28.3411C115.417 27.9257 115.483 27.5057 115.653 27.1239C115.534 27.1159 115.416 27.0926 115.302 27.0547L115.297 37.0181Z" fill="#FF7752"/>
<path d="M115.297 37.0181V37.5716V37.7125C119.817 38.846 124.073 40.8476 127.828 43.6065C128.435 44.0524 129.03 44.5034 129.622 44.9801C129.637 43.0684 129.473 41.149 128.853 39.3424C128.352 37.7899 127.411 36.4161 126.144 35.3883C125.03 34.499 123.71 33.9276 122.382 33.4125C121.055 32.8974 119.753 32.4464 118.539 31.7519C117.514 31.1897 116.618 30.4189 115.909 29.4892C115.662 29.1527 115.507 28.7565 115.462 28.3411C115.417 27.9257 115.483 27.5057 115.653 27.1239C115.534 27.1159 115.416 27.0926 115.302 27.0547L115.297 37.0181Z" fill="#FF7752"/>
<path d="M52.8578 80.195C54.5545 81.4125 56.4426 82.3384 58.4443 82.9344C59.3027 83.1907 57.2732 84.1491 58.1547 84.3208C54.667 76.0897 57.1553 63.4356 68.1898 51.8885C70.0682 49.9205 74.3888 47.4271 76.5183 45.6947C79.9445 42.9092 83.6936 42.5479 87.2812 40.877C88.8846 40.1367 90.5311 39.4932 92.2116 38.95C95.1991 37.9572 98.2827 37.2804 101.411 36.9306C102.121 36.8435 102.823 36.782 103.533 36.7436C103.36 35.5235 103.395 34.2827 103.636 33.0739C104.289 29.7579 105.43 27.8539 107.505 25.2401C108.807 23.5949 110.837 19.6613 108.128 18.3057C106.421 17.4549 106.265 15.7149 107.067 14.654C107.746 13.7468 109.117 13.3342 110.814 14.3977C111.985 15.146 113.376 15.1947 114.714 14.8282C115.757 14.2209 116.661 13.4021 117.369 12.4245C119.334 9.60565 119.403 5.33892 116.331 3.2709C114.652 2.1408 112.515 1.8666 110.509 2.08442C109.612 2.1882 108.729 2.38655 107.874 2.67638C107.871 2.67484 107.867 2.67407 107.863 2.67407C107.859 2.67407 107.855 2.67484 107.851 2.67638C104.223 4.63421 101.624 8.25516 100.376 12.3348C99.6432 14.7462 98.8155 17.1346 97.8468 19.4742C97.0524 21.3936 96.4989 23.7281 94.7255 25.0376C93.9862 25.5868 93.146 25.9848 92.2526 26.2087C88.9059 28.3306 84.2625 27.1056 80.6031 26.6546C77.6768 26.2546 74.6976 26.556 71.9107 27.5336C68.7895 29.1096 66.1064 31.6337 63.9282 34.9062C60.3406 40.3286 64.1384 48.1471 58.1239 52.4241C56.3122 53.7054 54.2134 54.4921 52.23 55.4992C49.3906 56.9445 47.1048 58.9946 46.2617 62.162C44.578 68.507 47.5583 76.3486 52.8578 80.195Z" fill="#FF7752"/>
<path d="M127.054 126.609L173.322 200.179L153.589 199.246L146.23 192.532H137.817C137.817 192.532 114.887 158.906 109.628 153.207C104.37 147.507 109.628 133.062 109.628 133.062L127.054 126.609Z" fill="white"/>
<path d="M199.948 207.938H57.6191" stroke="black" stroke-width="2" stroke-miterlimit="10"/>
<path d="M120.516 9.85048C120.881 10.608 121.194 11.3896 121.451 12.1901C121.825 13.4945 121.42 14.2992 121.989 15.5394C122.184 15.9674 122.466 16.6926 122.758 17.4281C122.842 17.2564 122.922 17.1154 122.968 17.0053C125.2 12.0364 122.266 9.64034 120.854 8.82031C120.767 9.17164 120.653 9.51606 120.516 9.85048Z" fill="#FF7752"/>
<path d="M120.516 9.85048C120.881 10.608 121.194 11.3896 121.451 12.1901C121.825 13.4945 121.42 14.2992 121.989 15.5394C122.184 15.9674 122.466 16.6926 122.758 17.4281C122.842 17.2564 122.922 17.1154 122.968 17.0053C125.2 12.0364 122.266 9.64034 120.854 8.82031C120.767 9.17164 120.653 9.51606 120.516 9.85048Z" fill="#FF7752"/>
<path d="M99.4163 142.961C97.0306 151.348 93.1815 159.853 89.9911 165.23C87.6845 169.109 83.9956 171.972 79.6654 173.244C75.3351 174.516 70.684 174.103 66.6458 172.087L31.6279 154.71V146.845L16.9955 129.289L7.18073 141.31C6.90812 141.648 6.56335 141.92 6.17178 142.106C5.78019 142.293 5.35175 142.39 4.91795 142.389C4.40889 142.386 3.90936 142.251 3.46872 141.996C3.02809 141.741 2.66158 141.375 2.4054 140.935C2.14922 140.496 2.0122 139.996 2.00792 139.487C2.00364 138.978 2.13223 138.477 2.38098 138.033L14.4688 116.817C14.8488 116.146 15.4797 115.652 16.2228 115.446C16.9662 115.239 17.7612 115.336 18.4331 115.715L24.9165 119.351L62.0741 140.162C62.6922 140.508 63.3834 140.702 64.0912 140.729C64.7987 140.755 65.5026 140.613 66.1446 140.314C66.7868 140.016 67.3487 139.569 67.7841 139.01C68.2198 138.452 68.5163 137.798 68.6498 137.102L73.0523 114.039" stroke="black" stroke-width="2" stroke-miterlimit="10"/>
<path d="M83.2988 129.625L92.8189 137.369C102.839 145.274 111.559 154.699 118.663 165.302L137.682 192.611H168.382" stroke="black" stroke-width="2" stroke-miterlimit="10"/>
<path d="M146.64 192.615L152.936 198.819L161.106 206.855C161.812 207.552 162.765 207.944 163.758 207.944H184.2C185.04 207.949 185.85 207.63 186.461 207.054C187.072 206.477 187.437 205.687 187.48 204.847C187.523 204.008 187.241 203.185 186.693 202.548C186.145 201.912 185.372 201.511 184.536 201.43L173.193 200.256L118.441 113.192C115.622 108.697 113.111 101.299 115.297 96.453C123.623 78.0203 122.902 60.1641 122.902 60.1641" stroke="black" stroke-width="2" stroke-miterlimit="10"/>
<path d="M115.296 25.4852V36.9401V37.4936V37.6345C116.472 39.3515 117.067 41.7859 115.942 43.6105C114.438 46.0527 111.114 45.6478 109.005 44.2819C108.385 43.8798 107.794 43.4362 107.234 42.9545C105.36 41.3254 104.148 39.0665 103.826 36.6044C103.653 35.3851 103.687 34.1453 103.926 32.9373C104.584 29.6238 105.72 27.7198 107.803 25.1009C109.105 23.4582 111.134 19.5221 108.421 18.1665C105.246 16.5828 107.444 11.947 111.106 14.2636C113.946 16.0574 118.025 13.8203 119.711 11.4089C121.677 8.59003 121.749 4.3233 118.674 2.25528C116.995 1.12517 114.858 0.850973 112.854 1.06879C106.742 1.7402 102.396 6.51688 100.656 12.1956C99.9231 14.607 99.0954 16.9953 98.1293 19.335C97.3323 21.257 96.7788 23.5889 95.008 24.8984C91.6382 27.42 86.7539 26.1003 82.9382 25.6339C74.9941 24.6575 68.5876 28.176 64.2107 34.7618C60.6231 40.1843 64.4208 48.0028 58.4039 52.2798C56.5947 53.5611 54.4959 54.3478 52.5099 55.3549C49.668 56.7976 47.3847 58.8503 46.539 62.0177C44.8554 68.3832 47.8357 76.2273 53.1326 80.0737C55.5594 81.8368 58.3987 82.8926 61.3483 83.4666" stroke="black" stroke-width="2" stroke-miterlimit="10"/>
<path d="M130.977 46.4515C130.992 46.3054 131 46.1645 131.005 46.0261C131.138 43.5122 131.123 40.9009 130.303 38.4946C129.801 36.9435 128.86 35.5709 127.594 34.5431C126.474 33.6539 125.157 33.0773 123.835 32.5647C122.512 32.0522 121.203 31.6012 119.991 30.9042C118.964 30.3458 118.068 29.5744 117.364 28.6414C117.115 28.3067 116.959 27.9121 116.912 27.4977C116.864 27.0831 116.928 26.6636 117.095 26.2812" stroke="black" stroke-width="2" stroke-miterlimit="10"/>
<path d="M31.6309 146.849V123.109" stroke="black" stroke-width="2" stroke-miterlimit="10"/>
<path d="M112.834 22.9199C113.754 24.2345 115.002 25.6542 116.575 26.1693C118.613 26.8304 119.984 25.1032 120.714 23.4196C121.152 22.4176 121.452 21.3516 121.806 20.3163C121.921 19.9755 121.99 19.8038 122.382 19.7833C122.774 19.7628 123.182 19.8448 123.582 19.8448C123.612 19.8463 123.642 19.8391 123.668 19.824C123.695 19.8089 123.716 19.7866 123.73 19.7594C123.745 19.7325 123.75 19.702 123.748 19.6718C123.745 19.6415 123.733 19.6126 123.715 19.5885C123.177 18.771 122.375 16.5364 121.967 15.6421C121.403 14.4018 121.811 13.592 121.432 12.2953C121.173 11.4953 120.862 10.7129 120.501 9.95312" stroke="black" stroke-width="2" stroke-miterlimit="10"/>
<path d="M121.102 7.5625C121.102 7.5625 126.655 9.68946 123.787 16.0908C123.61 16.4803 123.175 17.2876 122.97 17.654" stroke="black" stroke-width="2" stroke-miterlimit="10"/>
<path d="M120.793 23.2229C120.349 23.2832 119.898 23.1796 119.524 22.9316C119.151 22.6835 118.88 22.3078 118.764 21.875" stroke="black" stroke-width="2" stroke-miterlimit="10"/>
<path d="M121.733 14.6537C120.582 13.7184 119.322 14.91 118.553 15.7838" stroke="black" stroke-width="2" stroke-miterlimit="10"/>
<path d="M115.297 37.6328C119.819 38.7665 124.077 40.7684 127.836 43.5268C128.927 44.3161 129.981 45.1566 131.003 46.0304C135.037 49.4541 138.586 53.4159 142.035 57.4212" stroke="black" stroke-width="2" stroke-miterlimit="10"/>
<path d="M147.209 95.2056C147.188 95.1931 147.169 95.1775 147.152 95.1595C142.627 90.634 138.068 86.1417 133.529 81.6315C129.727 77.8543 124.781 73.9873 122.459 69.0312" stroke="black" stroke-width="2" stroke-miterlimit="10"/>
<path d="M94.1445 127.788C94.5135 127.671 94.8646 127.553 95.1978 127.43C95.2037 127.432 95.2098 127.432 95.2157 127.43" stroke="black" stroke-width="2" stroke-miterlimit="10"/>
<path d="M59.6966 74.5748L86.7192 66.7076L136.344 52.2571C138.728 51.5706 141.287 51.8561 143.461 53.0507C145.635 54.2454 147.248 56.2522 147.947 58.6329L158.605 95.2447C159.292 97.6284 159.008 100.187 157.815 102.362C156.622 104.537 154.617 106.151 152.237 106.853L99.3503 122.249L94.302 123.715L89.1768 125.214L84.1284 126.688L80.0283 127.874L65.4727 132.113C63.0887 132.8 60.5292 132.516 58.3546 131.321C56.1797 130.126 54.5671 128.118 53.8693 125.737L43.2114 89.1252C42.5241 86.7428 42.8078 84.185 44.0004 82.0112C45.1933 79.8373 47.1983 78.2242 49.5769 77.5243L49.9587 77.4141L50.2791 77.3193L57.0751 75.3384L59.6966 74.5748Z" fill="white"/>
<path d="M63.7568 75.5365L88.7934 68.2484L134.777 54.8588C136.987 54.2187 139.361 54.4808 141.379 55.5881C143.396 56.6952 144.893 58.5572 145.54 60.7656L155.411 94.6791C156.047 96.8878 155.784 99.2582 154.68 101.274C153.576 103.29 151.72 104.788 149.517 105.442L100.507 119.711L95.8303 121.074L91.0716 122.46L86.3948 123.829L82.5919 124.918L67.0293 129.53C64.8188 130.171 62.4443 129.909 60.4267 128.802C58.409 127.695 56.9129 125.833 56.2664 123.624L46.4004 89.6922C45.7602 87.4835 46.0211 85.1111 47.1256 83.0941C48.2303 81.077 50.0887 79.5797 52.2943 78.9293L52.648 78.8268L52.9452 78.7423L61.3275 76.2309L63.7568 75.5365Z" fill="#FF7752"/>
<path d="M66.4686 76.7393L89.6832 69.9817L134.016 57.0021C136.064 56.4127 138.262 56.6577 140.13 57.6838C141.998 58.7099 143.384 60.4337 143.985 62.4784L153.143 93.9343C153.733 95.9824 153.489 98.1806 152.464 100.049C151.439 101.918 149.716 103.305 147.672 103.908L100.536 117.708L96.1998 118.968L91.7896 120.25L87.4511 121.516L83.9378 122.541L68.0984 127.205C66.0488 127.8 63.8473 127.557 61.9763 126.53C60.1056 125.504 58.7185 123.777 58.1196 121.728L48.9583 90.2749C48.3679 88.2277 48.6119 86.0297 49.6369 84.1619C50.6622 82.294 52.3853 80.9079 54.4295 80.3064L56.1669 79.8118L56.4437 79.7298L64.216 77.403L66.4686 76.7393Z" fill="#FF7752"/>
<path d="M100.975 95.4556L59.2534 107.231C59.031 107.294 58.7983 107.312 58.5687 107.285C58.3393 107.258 58.1174 107.185 57.9157 107.072C57.714 106.959 57.5367 106.808 57.3937 106.626C57.251 106.444 57.1451 106.236 57.0829 106.014C57.0373 105.86 57.0139 105.7 57.0137 105.539C57.0155 105.157 57.141 104.785 57.3722 104.479C57.6031 104.174 57.927 103.951 58.295 103.846L100.017 92.0781C99.8485 92.6527 99.8406 93.2623 99.9936 93.8412C100.159 94.4624 100.5 95.0225 100.975 95.4556Z" fill="#FF7752"/>
<path d="M110.72 91.3653C110.719 91.7494 110.594 92.1228 110.363 92.4298C110.132 92.7365 109.807 92.9602 109.438 93.0668L106.427 93.9176C106.599 93.3203 106.601 92.687 106.433 92.0887C106.265 91.4903 105.934 90.9506 105.477 90.5298L108.488 89.6816C108.937 89.5568 109.417 89.6147 109.823 89.8428C110.229 90.0709 110.528 90.4507 110.656 90.8989C110.701 91.0501 110.722 91.2074 110.72 91.3653Z" fill="#FFDFD6"/>
<path d="M112.616 98.0858C112.615 98.4689 112.489 98.841 112.258 99.1464C112.027 99.4519 111.703 99.6741 111.335 99.7796L69.872 111.475C70.1206 110.901 70.2013 110.267 70.1047 109.649C70.0081 109.03 69.738 108.451 69.3262 107.98L110.376 96.3919C110.825 96.2679 111.305 96.3263 111.711 96.5541C112.117 96.7822 112.417 97.1614 112.544 97.6091C112.592 97.7634 112.616 97.9241 112.616 98.0858Z" fill="#FFDFD6"/>
<path d="M64.8854 112.869L61.1491 113.922C60.9213 114.012 60.6773 114.053 60.4326 114.043C60.1881 114.033 59.9483 113.972 59.7287 113.864C59.5091 113.755 59.3146 113.602 59.1577 113.414C59.0009 113.226 58.8851 113.007 58.8177 112.772C58.7503 112.537 58.7331 112.29 58.7667 112.047C58.8005 111.805 58.8846 111.572 59.0137 111.364C59.1429 111.156 59.314 110.977 59.5162 110.839C59.7184 110.701 59.9473 110.607 60.1882 110.563L63.5195 109.625C63.4478 110.085 63.4696 110.555 63.5836 111.006C63.7832 111.762 64.2445 112.422 64.8854 112.869Z" fill="#FF7752"/>
<path d="M102.027 109.737L63.3162 120.661C62.8675 120.783 62.3886 120.724 61.9831 120.496C61.5777 120.269 61.2779 119.891 61.1483 119.444C61.1032 119.292 61.0816 119.134 61.0842 118.975C61.085 118.591 61.2103 118.218 61.4414 117.911C61.6723 117.604 61.9967 117.381 62.3655 117.274L101.02 106.375C100.858 106.974 100.867 107.606 101.045 108.2C101.222 108.794 101.563 109.326 102.027 109.737Z" fill="#FF7752"/>
<path d="M114.792 104.805C114.792 105.188 114.667 105.561 114.436 105.867C114.204 106.173 113.879 106.394 113.51 106.499L107.44 108.208L102.032 109.745C101.568 109.334 101.228 108.802 101.05 108.208C100.872 107.614 100.864 106.982 101.025 106.383L106.535 104.83L112.557 103.129C113.005 103.002 113.485 103.058 113.892 103.285C114.299 103.512 114.599 103.891 114.728 104.338C114.77 104.49 114.792 104.647 114.792 104.805Z" fill="#FFDFD6"/>
<path d="M106.428 93.9151C106.227 94.6183 105.799 95.2359 105.213 95.6723C104.625 96.1087 103.911 96.3398 103.18 96.3301C102.448 96.3201 101.74 96.0697 101.165 95.6174C100.59 95.1654 100.18 94.5363 99.9981 93.828C99.8877 93.4041 99.8621 92.9629 99.9225 92.5293C99.9828 92.0957 100.128 91.6782 100.35 91.3007C100.572 90.9233 100.866 90.5932 101.215 90.3295C101.565 90.0656 101.963 89.8734 102.386 89.7637C102.925 89.6235 103.49 89.6205 104.03 89.7547C104.569 89.889 105.067 90.1563 105.477 90.5325C105.934 90.9533 106.265 91.4929 106.433 92.0913C106.601 92.6897 106.599 93.3229 106.428 93.9202V93.9151Z" fill="white"/>
<g opacity="0.72">
<path opacity="0.72" d="M104.64 92.3175C104.681 92.7211 104.606 93.1283 104.425 93.4912C104.337 93.6706 104.235 93.8422 104.117 94.0037C104.053 94.0883 103.717 94.5726 103.62 94.5521C102.959 94.4342 102.013 93.9191 101.708 93.2298C101.663 93.1214 101.631 93.0079 101.614 92.8915C101.59 92.7227 101.618 92.5507 101.694 92.3982C101.77 92.2458 101.89 92.1194 102.039 92.0364C102.188 91.9534 102.358 91.9172 102.528 91.9326C102.697 91.948 102.858 92.0141 102.99 92.1227C103.061 91.9493 103.186 91.8034 103.347 91.7076C103.508 91.6115 103.696 91.5708 103.882 91.591C104.069 91.6112 104.244 91.6915 104.38 91.8198C104.517 91.9482 104.608 92.1174 104.64 92.3021V92.3175Z" fill="#FF7752"/>
</g>
<path d="M69.8725 111.472C69.5991 112.111 69.1325 112.649 68.538 113.01C67.9437 113.371 67.251 113.536 66.5576 113.484C65.8644 113.431 65.2048 113.163 64.6715 112.717C64.1382 112.27 63.7579 111.668 63.5839 110.995C63.4699 110.544 63.4481 110.074 63.5199 109.614C63.6275 108.98 63.916 108.39 64.3507 107.915C64.785 107.441 65.3473 107.101 65.9697 106.938C66.5709 106.779 67.2051 106.793 67.7989 106.978C68.3929 107.162 68.9223 107.511 69.3267 107.984C69.7388 108.455 70.0086 109.034 70.1052 109.653C70.2018 110.271 70.1211 110.905 69.8725 111.479V111.472Z" fill="white"/>
<g opacity="0.72">
<path opacity="0.72" d="M68.2279 109.483C68.2682 109.887 68.1928 110.294 68.0101 110.657C67.925 110.838 67.822 111.009 67.7026 111.169C67.6385 111.254 67.3028 111.738 67.208 111.718C66.5443 111.6 65.6013 111.085 65.2963 110.393C65.2494 110.285 65.2174 110.171 65.2015 110.055C65.1779 109.886 65.2058 109.714 65.2817 109.561C65.3576 109.409 65.4777 109.283 65.6266 109.2C65.7753 109.116 65.9457 109.08 66.1156 109.096C66.2852 109.111 66.4461 109.177 66.5776 109.286C66.6281 109.162 66.7068 109.051 66.8072 108.962C66.9077 108.873 67.0273 108.808 67.1568 108.773C67.2739 108.746 67.3956 108.743 67.514 108.764C67.6326 108.785 67.7456 108.83 67.8458 108.897C67.9463 108.963 68.0319 109.05 68.0977 109.15C68.1633 109.251 68.2077 109.365 68.2279 109.483Z" fill="#FF7752"/>
</g>
<path d="M107.435 108.206C107.202 108.973 106.699 109.63 106.019 110.054C105.339 110.479 104.529 110.644 103.737 110.518C102.945 110.391 102.226 109.982 101.712 109.367C101.199 108.752 100.925 107.971 100.942 107.169C100.959 106.368 101.266 105.6 101.806 105.007C102.345 104.414 103.081 104.036 103.878 103.944C104.674 103.852 105.477 104.051 106.138 104.504C106.799 104.958 107.273 105.636 107.473 106.412C107.625 107.002 107.612 107.623 107.435 108.206Z" fill="white"/>
<g opacity="0.72">
<path opacity="0.72" d="M105.66 106.575C105.699 106.979 105.624 107.385 105.442 107.749C105.356 107.929 105.253 108.1 105.135 108.261C105.071 108.346 104.735 108.83 104.64 108.81C103.977 108.692 103.031 108.177 102.726 107.487C102.68 107.378 102.648 107.263 102.631 107.146C102.608 106.978 102.636 106.806 102.712 106.653C102.787 106.501 102.908 106.375 103.056 106.291C103.205 106.208 103.375 106.172 103.545 106.187C103.715 106.203 103.876 106.269 104.007 106.378C104.079 106.205 104.205 106.06 104.367 105.964C104.528 105.869 104.716 105.828 104.902 105.849C105.088 105.869 105.263 105.95 105.4 106.078C105.536 106.206 105.628 106.375 105.66 106.56V106.575Z" fill="#FF7752"/>
</g>
<path d="M100.559 117.17C98.337 117.293 95.9461 114.095 95.2158 113.298C95.1348 113.213 95.0426 113.14 94.9416 113.08L92.9556 111.473L93.2887 114C93.8192 115.217 96.6201 117.872 98.6164 120.919C100.613 123.966 98.7112 124.632 97.6426 125.019C96.574 125.406 95.4567 123.387 95.8923 125.58C96.328 127.774 93.7397 127.805 92.1253 127.531C90.5109 127.256 89.9317 125.481 90.2982 126.875C90.6646 128.269 89.4551 129.286 88.3634 129.332C87.5357 129.373 85.9443 128.256 85.2268 127.718C85.0628 128.599 84.4708 130.255 82.4079 129.373C79.6685 128.202 77.0085 121.204 74.9764 114.041C72.9442 106.879 59.7827 93.8145 57.8633 79.9816C57.8633 79.9585 57.8633 79.9252 57.8633 79.9021C57.7608 78.8566 57.7088 77.8034 57.707 76.7425C57.7075 74.726 57.9033 72.7143 58.2913 70.7357C58.5688 69.2961 58.9394 67.8759 59.4009 66.4844L81.1317 70.7998C80.9831 70.9638 80.8345 71.1278 80.6859 71.2995C75.5991 77.2063 78.5717 84.6968 82.4412 90.1961C86.3671 95.7928 90.885 101.323 96.0486 105.828C97.5647 107.147 98.9815 108.577 100.287 110.105L100.005 110.261C100.312 110.859 100.654 111.437 101.03 111.994C102.565 114.11 102.791 117.044 100.559 117.17Z" fill="white"/>
<path d="M86.7188 66.7076L136.343 52.2571C138.727 51.5706 141.286 51.8561 143.461 53.0507C145.635 54.2454 147.248 56.2522 147.947 58.6329L158.605 95.2447C159.292 97.6284 159.007 100.187 157.814 102.362C156.621 104.537 154.616 106.151 152.237 106.853L99.3498 122.249" stroke="black" stroke-width="2" stroke-miterlimit="10"/>
<path d="M80.0155 127.88L65.4727 132.118C63.0887 132.806 60.5292 132.521 58.3546 131.326C56.1797 130.131 54.5671 128.124 53.8693 125.742L43.2114 89.1305C42.5241 86.7481 42.8078 84.1904 44.0004 82.0168C45.1933 79.8429 47.1983 78.2295 49.5769 77.5296L49.9587 77.4195L50.2791 77.3246L57.0751 75.3438" stroke="black" stroke-width="2" stroke-miterlimit="10"/>
<path d="M94.3005 123.719H94.293" stroke="black" stroke-width="2" stroke-miterlimit="10"/>
<path d="M84.111 126.688H84.1035" stroke="black" stroke-width="2" stroke-miterlimit="10"/>
<path d="M86.8779 112.651C87.5929 116.551 90.8423 120.777 94.289 123.703C95.291 124.554 97.5051 125.59 98.7069 124.618C101.3 122.527 96.867 119.083 95.6446 117.699C94.1609 116.018 92.9616 114.048 92.5157 111.826C92.4767 111.689 92.4849 111.543 92.5387 111.411C92.5908 111.339 92.6643 111.286 92.7489 111.26C92.8334 111.233 92.9242 111.235 93.0077 111.265C93.173 111.326 93.3221 111.424 93.4433 111.552C94.8476 112.833 96.1007 114.25 97.3718 115.652C98.2713 116.654 100.611 117.897 101.759 116.62C104.25 113.85 97.2001 107.395 95.396 105.811C90.2375 101.301 85.712 95.7711 81.7861 90.1795C77.9165 84.6802 74.9439 77.1897 80.0307 71.2829C82.6855 68.2078 86.6166 66.865 90.1273 65.0481C95.7907 62.1268 96.9567 57.2578 96.9567 57.2578" stroke="black" stroke-width="2" stroke-miterlimit="10"/>
<path d="M83.5859 116.617C83.5859 116.617 86.5175 124.974 92.7447 127.575C93.1144 127.739 93.5165 127.819 93.9212 127.807C94.3255 127.794 94.7222 127.692 95.0818 127.506C95.8505 127.075 96.4784 126.224 95.3995 124.518" stroke="black" stroke-width="2" stroke-miterlimit="10"/>
<path d="M79.5273 118.57C80.6703 121.671 82.1873 124.913 84.6269 127.219C85.7391 128.267 87.1485 129.305 88.7271 129.372C90.6285 129.451 90.7772 127.534 90.0084 126.23C89.8421 125.95 89.6424 125.692 89.4138 125.461" stroke="black" stroke-width="2" stroke-miterlimit="10"/>
<path d="M84.6274 127.222C84.6274 127.222 84.489 130.554 81.7496 129.378C79.0101 128.201 76.3425 121.205 74.318 114.04C72.2936 106.875 59.0577 93.7728 57.1793 79.9066L57.1999 80.0757C57.1999 80.045 57.1999 80.0219 57.1999 79.9912C56.8798 76.903 57.0212 73.7841 57.6201 70.7376C63.5525 40.7142 103.55 36.7422 103.55 36.7422" stroke="black" stroke-width="2" stroke-miterlimit="10"/>
<path d="M162.81 100.143C161.703 103.41 158.966 105.493 155.593 106.001C154.148 106.213 152.59 106.408 151.237 105.745C150.245 105.26 149.269 104.13 149.566 102.944C149.125 102.949 148.685 102.899 148.257 102.795C147.67 102.654 147.063 102.375 146.804 101.834C146.545 101.293 146.727 100.54 147.147 100.056C147.605 99.604 148.169 99.2745 148.787 99.0972C148.937 99.0418 149.09 98.9947 149.246 98.9562C148.745 98.9606 148.245 98.9288 147.749 98.8614C146.796 98.7384 145.727 98.3309 145.443 97.4186C145.364 97.1086 145.365 96.7836 145.446 96.4741C145.526 96.1643 145.684 95.8801 145.904 95.6479C146.353 95.1871 146.915 94.853 147.534 94.6792C147.598 94.6639 147.652 94.6408 147.713 94.6254C146.583 94.61 145.428 94.3845 144.928 93.3134C144.767 92.9328 144.722 92.5136 144.797 92.1071C144.872 91.701 145.065 91.3256 145.351 91.0275C146.35 89.9051 147.847 89.7462 149.259 89.6386C150.671 89.531 152.388 89.4823 154.051 89.4515C154.412 89.442 154.766 89.3498 155.087 89.1825C155.407 89.0149 155.684 88.7763 155.898 88.4849C156.112 88.1938 156.257 87.8573 156.32 87.5016C156.385 87.146 156.366 86.7805 156.267 86.4328C155.619 84.1264 155.345 81.61 156.711 80.9949C158.748 80.0724 160.152 82.5863 160.737 84.1316C162.523 88.8673 164.511 95.1405 162.81 100.143Z" fill="white"/>
<path d="M154.218 98.2422C152.57 98.5933 150.902 98.952 149.231 98.9674C149.076 99.0061 148.923 99.0533 148.772 99.1083C148.154 99.2854 147.59 99.615 147.132 100.067C146.712 100.551 146.51 101.269 146.789 101.845C147.068 102.422 147.655 102.665 148.242 102.806C148.67 102.91 149.11 102.96 149.551 102.955C150.453 102.936 151.351 102.824 152.229 102.619C152.378 102.588 154.197 102.378 154.338 102.345" stroke="black" stroke-width="2" stroke-miterlimit="10"/>
<path d="M147.696 94.6406C147.635 94.656 147.581 94.6791 147.517 94.6944C146.898 94.8679 146.335 95.2021 145.887 95.6631C145.667 95.895 145.509 96.1792 145.428 96.489C145.348 96.7986 145.347 97.1238 145.426 97.4339C145.723 98.3462 146.792 98.7536 147.732 98.8766C148.228 98.9437 148.728 98.9755 149.229 98.9714" stroke="black" stroke-width="2" stroke-miterlimit="10"/>
<path d="M155.602 94.4691C155.476 94.4691 155.358 94.4691 155.235 94.4691L149.28 94.6023C148.813 94.6023 148.255 94.6485 147.696 94.6331C146.566 94.6177 145.41 94.3922 144.91 93.321C144.75 92.9405 144.704 92.521 144.779 92.1148C144.854 91.7087 145.047 91.3332 145.333 91.0352C146.333 89.9128 147.829 89.7539 149.241 89.6463C150.653 89.5386 152.373 89.4951 154.036 89.4592C154.398 89.451 154.754 89.3595 155.076 89.1922C155.397 89.0251 155.676 88.786 155.891 88.4941C156.106 88.202 156.251 87.8645 156.315 87.5075C156.379 87.1506 156.36 86.7839 156.26 86.4353C155.612 84.129 155.332 81.61 156.701 80.9949C158.738 80.0724 160.142 82.5863 160.727 84.1316C162.521 88.8672 164.512 95.1507 162.81 100.143C161.701 103.41 158.966 105.499 155.596 106.001C154.154 106.216 152.59 106.411 151.24 105.745C150.253 105.263 149.274 104.135 149.569 102.949" stroke="black" stroke-width="2" stroke-miterlimit="10"/>
<g opacity="0.54">
<path opacity="0.54" d="M108.404 81.0416C108.359 80.7456 108.292 80.4535 108.202 80.1678L107.195 76.9107C106.887 75.9139 106.546 74.8606 105.762 74.1739C104.309 72.8926 102.069 73.3718 100.211 73.9304L95.6526 75.2988C94.6045 75.614 93.541 75.9369 92.6262 76.534C91.7113 77.1311 90.9477 78.0588 90.8042 79.1427C90.6965 79.9423 90.9323 80.7418 91.1655 81.5157L92.1034 84.6421C92.4135 85.6671 92.7569 86.7485 93.5641 87.4609C95.0017 88.7115 97.1979 88.2425 99.0276 87.7018L103.691 86.3257C106.505 85.4852 108.858 83.9809 108.404 81.0416Z" fill="white"/>
<path opacity="0.54" d="M102.008 81.4256C102.196 81.2278 102.328 80.9831 102.391 80.7173C102.453 80.4513 102.443 80.1736 102.363 79.9124C102.282 79.6516 102.133 79.4168 101.932 79.2323C101.73 79.0478 101.483 78.9204 101.216 78.863L99.7709 78.535L98.3282 78.207C98.0627 78.1429 97.7849 78.1506 97.5235 78.2296C97.2619 78.3085 97.0261 78.4556 96.8403 78.6557C96.6545 78.8559 96.5254 79.1019 96.4662 79.3684C96.407 79.6351 96.4201 79.9127 96.5036 80.1725L96.9418 81.5871L97.3774 83.0016C97.4546 83.264 97.6001 83.5011 97.7992 83.6884C97.9986 83.8757 98.2441 84.0064 98.5106 84.0674C98.7771 84.1282 99.0552 84.1169 99.3158 84.0346C99.5767 83.9521 99.8106 83.8017 99.9939 83.5987L101.001 82.5122L102.008 81.4256Z" fill="#FF7752"/>
</g>
<path d="M190.522 111.004C198.205 111.004 204.434 104.776 204.434 97.092C204.434 89.4086 198.205 83.1797 190.522 83.1797C182.838 83.1797 176.609 89.4086 176.609 97.092C176.609 104.776 182.838 111.004 190.522 111.004Z" fill="#FF7752"/>
<path d="M188.269 103.329C188.108 103.329 187.947 103.297 187.798 103.235C187.648 103.173 187.512 103.082 187.398 102.967L183.811 99.3798C183.579 99.1489 183.449 98.8358 183.449 98.5093C183.449 98.1828 183.579 97.8694 183.809 97.6385C184.04 97.4074 184.353 97.2775 184.68 97.2772C185.006 97.277 185.319 97.4064 185.551 97.6373L188.277 100.364L195.501 93.1348C195.732 92.9036 196.045 92.7737 196.372 92.7734C196.698 92.7732 197.011 92.9026 197.242 93.1335C197.474 93.3641 197.603 93.6773 197.604 94.0037C197.604 94.3302 197.475 94.6436 197.244 94.8748L189.138 102.98C188.906 103.207 188.594 103.332 188.269 103.329Z" fill="white"/>
</svg>
