<svg width="25" height="25" viewBox="0 0 25 25" fill="currentColor" xmlns="http://www.w3.org/2000/svg">
<path fill-rule="evenodd" clip-rule="evenodd" d="M8.62409 4.56017L6.67448 7.15966C6.57223 7.29599 6.43964 7.40665 6.28721 7.48286C6.13478 7.55908 5.9667 7.59876 5.79627 7.59876H5.35717C4.71666 7.59876 4.10238 7.8532 3.64946 8.30611C3.19655 8.75903 2.94211 9.37331 2.94211 10.0138V18.7959C2.94211 19.4364 3.19655 20.0507 3.64946 20.5036C4.10238 20.9565 4.71666 21.2109 5.35717 21.2109H19.4085C20.049 21.2109 20.6632 20.9565 21.1162 20.5036C21.5691 20.0507 21.8235 19.4364 21.8235 18.7959V10.0138C21.8235 9.37331 21.5691 8.75903 21.1162 8.30611C20.6632 7.8532 20.049 7.59876 19.4085 7.59876H18.9694C18.7989 7.59876 18.6308 7.55908 18.4784 7.48286C18.326 7.40665 18.1934 7.29599 18.0911 7.15966L16.1415 4.56017C16.0311 4.41292 15.8879 4.29341 15.7233 4.2111C15.5587 4.12879 15.3771 4.08594 15.1931 4.08594H9.57256C9.19932 4.08594 8.84804 4.26158 8.62409 4.56017ZM12.3828 9.35517C11.835 9.35517 11.2926 9.46307 10.7865 9.6727C10.2804 9.88234 9.82049 10.1896 9.43314 10.577C9.04578 10.9643 8.73851 11.4242 8.52887 11.9303C8.31924 12.4364 8.21134 12.9788 8.21134 13.5266C8.21134 14.0744 8.31924 14.6169 8.52887 15.123C8.73851 15.6291 9.04578 16.089 9.43314 16.4763C9.82049 16.8637 10.2804 17.1709 10.7865 17.3806C11.2926 17.5902 11.835 17.6981 12.3828 17.6981C13.4892 17.6981 14.5502 17.2586 15.3325 16.4763C16.1148 15.694 16.5543 14.633 16.5543 13.5266C16.5543 12.4203 16.1148 11.3593 15.3325 10.577C14.5502 9.79466 13.4892 9.35517 12.3828 9.35517Z" fill="currentColor"/>
</svg>
