<svg width="24" height="24" viewBox="0 0 24 24" fill="currentColor" xmlns="http://www.w3.org/2000/svg">
<path fill-rule="evenodd" clip-rule="evenodd" d="M11.5138 3.48828H12.5817V5.40136C14.5888 5.5962 15.9229 7.04084 15.9503 9.02808H14.1044C14.0084 7.93682 13.2331 7.30825 12.0812 7.31698C10.8629 7.30825 10.1393 8.00666 10.1319 8.95824C10.1245 10.0233 11.077 10.4598 11.9631 10.7043L12.9673 11.0185C14.5622 11.455 16.098 12.4503 16.098 14.6502C16.098 16.71 14.8174 18.1672 12.5817 18.364V20.5117H11.5138V18.3636C9.33742 18.1712 7.97718 16.7875 7.90198 14.4756H9.79224C9.88084 15.7939 10.8186 16.4399 12.0369 16.4486C13.2996 16.4399 14.1708 15.7153 14.1782 14.6328C14.1708 13.6376 13.4029 13.2185 12.2437 12.8693L11.0327 12.5026C9.27537 11.9614 8.18256 10.9138 8.18256 9.09792C8.18256 7.06545 9.5688 5.65392 11.5138 5.41489V3.48828Z" fill="currentColor"/>
</svg>
