<svg width="24" height="24" viewBox="0 0 24 24" fill="currentColor" xmlns="http://www.w3.org/2000/svg">
<path fill-rule="evenodd" clip-rule="evenodd" d="M3 20V3.5H4.5V19.25H20.25V20.75H3.75C3.33579 20.75 3 20.4142 3 20Z" fill="currentColor"/>
<path fill-rule="evenodd" clip-rule="evenodd" d="M20.3893 5.89357L16.3893 12.3936C16.284 12.5646 16.1145 12.6863 15.9188 12.7314C15.723 12.7764 15.5174 12.7411 15.3479 12.6332L10.5146 9.55752L4.4035 20.3695L3.09766 19.6315L9.59766 8.13145C9.69888 7.95236 9.86922 7.82272 10.0688 7.77286C10.2684 7.723 10.4797 7.75731 10.6532 7.86775L15.5109 10.959L19.1118 5.10742L20.3893 5.89357Z" fill="currentColor"/>
<path fill-rule="evenodd" clip-rule="evenodd" d="M10.5312 13.1127C10.7413 12.7644 11.1907 12.6471 11.5442 12.8482L17.2927 16.1176L18.8697 13.5697C19.0461 13.2847 19.3902 13.1513 19.7126 13.243C20.035 13.3347 20.2574 13.6292 20.2574 13.9644V20.0001H18.7574V16.6013L18.1879 17.5215C17.9756 17.8645 17.53 17.9781 17.1794 17.7787L11.438 14.5134L7.8937 20.3876L6.60938 19.6127L10.5312 13.1127Z" fill="currentColor"/>
</svg>
