<svg width="24" height="24" viewBox="0 0 24 24" fill="currentColor" xmlns="http://www.w3.org/2000/svg">
<path fill-rule="evenodd" clip-rule="evenodd" d="M11.334 6.66732C8.75666 6.66732 6.66732 8.75666 6.66732 11.334C6.66732 13.9113 8.75666 16.0007 11.334 16.0007C13.9113 16.0007 16.0007 13.9113 16.0007 11.334C16.0007 8.75666 13.9113 6.66732 11.334 6.66732ZM5.33398 11.334C5.33398 8.02028 8.02028 5.33398 11.334 5.33398C14.6477 5.33398 17.334 8.02028 17.334 11.334C17.334 14.6477 14.6477 17.334 11.334 17.334C8.02028 17.334 5.33398 14.6477 5.33398 11.334Z" fill="currentColor"/>
<path fill-rule="evenodd" clip-rule="evenodd" d="M14.6289 14.6308C14.8892 14.3705 15.3113 14.3705 15.5717 14.6308L18.4717 17.5308C18.732 17.7912 18.732 18.2133 18.4717 18.4736C18.2113 18.734 17.7892 18.734 17.5289 18.4736L14.6289 15.5736C14.3685 15.3133 14.3685 14.8912 14.6289 14.6308Z" fill="currentColor"/>
</svg>
