<svg width="24" height="24" viewBox="0 0 24 24" fill="currentColor" xmlns="http://www.w3.org/2000/svg">
<path fill-rule="evenodd" clip-rule="evenodd" d="M12.449 4.69666C12.3648 4.526 12.191 4.41797 12.0007 4.41797C11.8104 4.41797 11.6365 4.526 11.5523 4.69666L9.47999 8.89496L4.84567 9.57234C4.65739 9.59986 4.50105 9.73186 4.44236 9.91286C4.38367 10.0939 4.43281 10.2925 4.56912 10.4253L7.92206 13.691L7.13076 18.3047C7.09859 18.4923 7.17571 18.6819 7.3297 18.7938C7.48369 18.9056 7.68784 18.9204 7.85629 18.8318L12.0007 16.6523L16.145 18.8318C16.3135 18.9204 16.5176 18.9056 16.6716 18.7938C16.8256 18.6819 16.9027 18.4923 16.8706 18.3047L16.0793 13.691L19.4322 10.4253C19.5685 10.2925 19.6177 10.0939 19.559 9.91286C19.5003 9.73186 19.3439 9.59986 19.1557 9.57234L14.5213 8.89496L12.449 4.69666Z" fill="currentColor"/>
</svg>
