<svg width="24" height="24" viewBox="0 0 24 24" fill="currentColor" xmlns="http://www.w3.org/2000/svg">
<path fill-rule="evenodd" clip-rule="evenodd" d="M10.5 4.5H2.5V6.5H10.5V4.5ZM12 4C12 3.44772 11.5523 3 11 3H2C1.44772 3 1 3.44772 1 4V7C1 7.55228 1.44771 8 2 8H11C11.5523 8 12 7.55228 12 7V4Z" fill="currentColor"/>
<path fill-rule="evenodd" clip-rule="evenodd" d="M19.5 11.5H2.5V13.5H19.5V11.5ZM21 11C21 10.4477 20.5523 10 20 10H2C1.44772 10 1 10.4477 1 11V14C1 14.5523 1.44772 15 2 15H20C20.5523 15 21 14.5523 21 14V11Z" fill="currentColor"/>
<path fill-rule="evenodd" clip-rule="evenodd" d="M13.5 18.5H2.5V20.5H13.5V18.5ZM15 18C15 17.4477 14.5523 17 14 17H2C1.44772 17 1 17.4477 1 18V21C1 21.5523 1.44772 22 2 22H14C14.5523 22 15 21.5523 15 21V18Z" fill="currentColor"/>
</svg>
