<svg width="24" height="24" viewBox="0 0 24 24" fill="none" xmlns="http://www.w3.org/2000/svg">
<path fill-rule="evenodd" clip-rule="evenodd" d="M5 4C3.89543 4 3 4.89543 3 6V10.3H8.07692C8.36343 10.3 8.58296 10.4553 8.68754 10.5377C8.82455 10.6456 8.96228 10.7909 9.1014 10.9688C9.38084 11.3261 9.71474 11.8782 10.0971 12.7067L10.1315 12.7813L10.1401 12.7998L10.1444 12.809L10.1486 12.8183L10.1571 12.8367L10.1656 12.8551L10.2327 13.0004L10.2656 13.0718L10.2697 13.0807L10.2738 13.0895L10.2779 13.0984L10.282 13.1072L10.2901 13.1248L10.2942 13.1336L10.2982 13.1424L10.3623 13.2813L10.3663 13.2898L10.3702 13.2984L10.3742 13.3069L10.3781 13.3155L10.382 13.324L10.386 13.3325L10.3899 13.341L10.3938 13.3495L10.3977 13.3579L10.4016 13.3664L10.4055 13.3748L10.4094 13.3833L10.4133 13.3917L10.4171 13.4001L10.421 13.4085L10.4249 13.4168L10.4287 13.4252L10.4326 13.4335L10.4364 13.4419L10.4403 13.4502L10.4556 13.4834L10.4594 13.4916L10.4632 13.4999L10.467 13.5081L10.4708 13.5163L10.4859 13.5491L10.5009 13.5816L10.5159 13.614L10.5233 13.6301L10.527 13.6381L10.5307 13.6461L10.5454 13.678L10.5601 13.7097L10.5746 13.7412L10.6034 13.8035L10.6105 13.819L10.6176 13.8344L10.6211 13.8421L10.6247 13.8497L10.6317 13.865L10.6388 13.8803L10.6458 13.8954L10.6493 13.903L10.6528 13.9106L10.6597 13.9256L10.7145 14.0443L10.8192 14.2711L10.8255 14.2848L10.8318 14.2985L10.8349 14.3053L10.8381 14.3121L10.8412 14.3188L10.8443 14.3256L10.8462 14.3296L13.9029 7.70666C14.0245 7.44328 14.2959 7.28216 14.5853 7.30157C14.8747 7.32097 15.1222 7.51687 15.2075 7.7941L15.2075 7.79414L15.2075 7.79417L15.2077 7.79474L15.2085 7.79747L15.2122 7.80919L15.2269 7.85628C15.24 7.89772 15.2592 7.95852 15.2839 8.0348C15.3332 8.18749 15.4038 8.40153 15.4884 8.64602C15.6595 9.14015 15.8812 9.73886 16.0971 10.2067C16.2196 10.4719 16.2866 10.6145 16.3462 10.7113C16.3619 10.7369 16.3733 10.7526 16.3804 10.7617C16.4007 10.7674 16.451 10.7785 16.554 10.7865C16.7226 10.7995 16.9502 10.8 17.3077 10.8H17.3207H17.3336H17.3465H17.3594H17.3723H17.3851H17.398H17.4108H17.4236H17.4363H17.449H17.4617H17.4744H17.4871H17.4997H17.5123H17.5249H17.5375H17.55H17.5625H17.575H17.5875H17.5999H17.6124H17.6248H17.6371H17.6495H17.6618H17.6741H17.6864H17.6986H17.7109H17.7231H17.7353H17.7474H17.7595H17.7717H17.7837H17.7958H17.8079H17.8199H17.8319H17.8438H17.8558H17.8677H17.8796H17.8915H17.9033H17.9152H17.927H17.9388H17.9505H17.9622H17.974H17.9856H17.9973H18.009H18.0206H18.0322H18.0437H18.0553H18.0668H18.0783H18.0898H18.1012H18.1127H18.1241H18.1355H18.1468H18.1582H18.1695H18.1808H18.192H18.2033H18.2145H18.2257H18.2369H18.248H18.2591H18.2702H18.2813H18.2924H18.3034H18.3144H18.3254H18.3364H18.3473H18.3582H18.3691H18.38H18.3908H18.4017H18.4125H18.4232H18.434H18.4447H18.4554H18.4661H18.4768H18.4874H18.498H18.5086H18.5192H18.5297H18.5403H18.5508H18.5612H18.5717H18.5821H18.5925H18.6029H18.6133H18.6236H18.6339H18.6442H18.6545H18.6648H18.675H18.6852H18.6954H18.7055H18.7156H18.7258H18.7358H18.7459H18.7559H18.766H18.776H18.7859H18.7959H18.8058H18.8157H18.8256H18.8355H18.8453H18.8551H18.8649H18.8747H18.8844H18.8941H18.9038H18.9135H18.9231H18.9328H18.9424H18.952H18.9615H18.9711H18.9806H18.9901H18.9995H19.009H19.0184H19.0278H19.0372H19.0466H19.0559H19.0652H19.0745H19.0838H19.093H19.1022H19.1114H19.1206H19.1298H19.1389H19.148H19.1571H19.1661H19.1752H19.1842H19.1932H19.2022H19.2111H19.22H19.229H19.2378H19.2467H19.2555H19.2644H19.2731H19.2819H19.2907H19.2994H19.3081H19.3168H19.3254H19.3341H19.3427H19.3513H19.3598H19.3684H19.3769H19.3854H19.3939H19.4024H19.4108H19.4192H19.4276H19.436H19.4443H19.4526H19.4609H19.4692H19.4775H19.4857H19.4939H19.5021H19.5103H19.5184H19.5265H19.5346H19.5427H19.5508H19.5588H19.5668H19.5748H19.5828H19.5907H19.5986H19.6066H19.6144H19.6223H19.6301H19.6379H19.6457H19.6535H19.6612H19.669H19.6767H19.6844H19.692H19.6996H19.7073H19.7149H19.7224H19.73H19.7375H19.745H19.7525H19.7599H19.7674H19.7748H19.7822H19.7896H19.7969H19.8043H19.8116H19.8188H19.8261H19.8334H19.8406H19.8478H19.8549H19.8621H19.8692H19.8763H19.8834H19.8905H19.8975H19.9046H19.9116H19.9185H19.9255H19.9324H19.9394H19.9462H19.9531H19.96H19.9668H19.9736H19.9804H19.9871H19.9939H20.0006H20.0073H20.014H20.0206H20.0273H20.0339H20.0405H20.047H20.0536H20.0601H20.0666H20.0731H20.0795H20.086H20.0924H20.0988H20.1052H20.1115H20.1178H20.1242H20.1304H20.1367H20.143H20.1492H20.1554H20.1616H20.1677H20.1739H20.18H20.1861H20.1921H20.1982H20.2042H20.2102H20.2162H20.2222H20.2281H20.234H20.2399H20.2458H20.2517H20.2575H20.2633H20.2691H20.2749H20.2806H20.2864H20.2921H20.2978H20.3034H20.3091H20.3147H20.3203H20.3259H20.3315H20.337H20.3425H20.348H20.3535H20.3589H20.3644H20.3698H20.3752H20.3805H20.3859H20.3912H20.3965H20.4018H20.4071H20.4123H20.4175H20.4227H20.4279H20.4331H20.4382H20.4433H20.4484H20.4535H20.4586H20.4636H20.4686H20.4736H20.4786H20.4835H20.4884H20.4933H20.4982H20.5031H20.5079H20.5128H20.5176H20.5223H20.5271H20.5318H20.5365H20.5412H20.5459H20.5506H20.5552H20.5598H20.5644H20.569H20.5735H20.5781H20.5826H20.5871H20.5915H20.596H20.6004H20.6048H20.6092H20.6136H20.6179H20.6222H20.6265H20.6308H20.6351H20.6393H20.6435H20.6477H20.6519H20.656H20.6602H20.6643H20.6684H20.6725H20.6765H20.6806H20.6846H20.6886H20.6925H20.6965H20.7004H20.7043H20.7082H20.7121H20.7159H20.7197H20.7235H20.7273H20.7311H20.7348H20.7386H20.7423H20.746H20.7496H20.7533H20.7569H20.7605H20.7641H20.7676H20.7712H20.7747H20.7782H20.7817H20.7851H20.7885H20.792H20.7954H20.7987H20.8021H20.8054H20.8087H20.812H20.8153H20.8186H20.8218H20.825H20.8282H20.8314H20.8345H20.8377H20.8408H20.8439H20.8469H20.85H20.853H20.856H20.859H20.862H20.8649H20.8679H20.8708H20.8737H20.8765H20.8794H20.8822H20.885H20.8878H20.8906H20.8933H20.8961H20.8988H20.9015H20.9041H20.9068H20.9094H20.912H20.9146H20.9172H20.9197H20.9223H20.9248H20.9272H20.9297H20.9322H20.9346H20.937H20.9394H20.9418H20.9441H20.9464H20.9487H20.951H20.9533H20.9555H20.9578H20.96H20.9622H20.9643H20.9665H20.9686H20.9707H20.9728H20.9749H20.9769H20.979H20.981H20.983H20.9849H20.9869H20.9888H20.9907H20.9926H20.9945H20.9964H20.9982H21V6C21 4.89543 20.1046 4 19 4H5ZM21 12.2H20.9982H20.9964H20.9945H20.9926H20.9907H20.9888H20.9869H20.9849H20.983H20.981H20.979H20.9769H20.9749H20.9728H20.9707H20.9686H20.9665H20.9643H20.9622H20.96H20.9578H20.9555H20.9533H20.951H20.9487H20.9464H20.9441H20.9418H20.9394H20.937H20.9346H20.9322H20.9297H20.9272H20.9248H20.9223H20.9197H20.9172H20.9146H20.912H20.9094H20.9068H20.9041H20.9015H20.8988H20.8961H20.8933H20.8906H20.8878H20.885H20.8822H20.8794H20.8765H20.8737H20.8708H20.8679H20.8649H20.862H20.859H20.856H20.853H20.85H20.8469H20.8439H20.8408H20.8377H20.8345H20.8314H20.8282H20.825H20.8218H20.8186H20.8153H20.812H20.8087H20.8054H20.8021H20.7987H20.7954H20.792H20.7885H20.7851H20.7817H20.7782H20.7747H20.7712H20.7676H20.7641H20.7605H20.7569H20.7533H20.7496H20.746H20.7423H20.7386H20.7348H20.7311H20.7273H20.7235H20.7197H20.7159H20.7121H20.7082H20.7043H20.7004H20.6965H20.6925H20.6886H20.6846H20.6806H20.6765H20.6725H20.6684H20.6643H20.6602H20.656H20.6519H20.6477H20.6435H20.6393H20.6351H20.6308H20.6265H20.6222H20.6179H20.6136H20.6092H20.6048H20.6004H20.596H20.5915H20.5871H20.5826H20.5781H20.5735H20.569H20.5644H20.5598H20.5552H20.5506H20.5459H20.5412H20.5365H20.5318H20.5271H20.5223H20.5176H20.5128H20.5079H20.5031H20.4982H20.4933H20.4884H20.4835H20.4786H20.4736H20.4686H20.4636H20.4586H20.4535H20.4484H20.4433H20.4382H20.4331H20.4279H20.4227H20.4175H20.4123H20.4071H20.4018H20.3965H20.3912H20.3859H20.3805H20.3752H20.3698H20.3644H20.3589H20.3535H20.348H20.3425H20.337H20.3315H20.3259H20.3203H20.3147H20.3091H20.3034H20.2978H20.2921H20.2864H20.2806H20.2749H20.2691H20.2633H20.2575H20.2517H20.2458H20.2399H20.234H20.2281H20.2222H20.2162H20.2102H20.2042H20.1982H20.1921H20.1861H20.18H20.1739H20.1677H20.1616H20.1554H20.1492H20.143H20.1367H20.1304H20.1242H20.1178H20.1115H20.1052H20.0988H20.0924H20.086H20.0795H20.0731H20.0666H20.0601H20.0536H20.047H20.0405H20.0339H20.0273H20.0206H20.014H20.0073H20.0006H19.9939H19.9871H19.9804H19.9736H19.9668H19.96H19.9531H19.9462H19.9394H19.9324H19.9255H19.9185H19.9116H19.9046H19.8975H19.8905H19.8834H19.8763H19.8692H19.8621H19.8549H19.8478H19.8406H19.8334H19.8261H19.8188H19.8116H19.8043H19.7969H19.7896H19.7822H19.7748H19.7674H19.7599H19.7525H19.745H19.7375H19.73H19.7224H19.7149H19.7073H19.6996H19.692H19.6844H19.6767H19.669H19.6612H19.6535H19.6457H19.6379H19.6301H19.6223H19.6144H19.6066H19.5986H19.5907H19.5828H19.5748H19.5668H19.5588H19.5508H19.5427H19.5346H19.5265H19.5184H19.5103H19.5021H19.4939H19.4857H19.4775H19.4692H19.4609H19.4526H19.4443H19.436H19.4276H19.4192H19.4108H19.4024H19.3939H19.3854H19.3769H19.3684H19.3598H19.3513H19.3427H19.3341H19.3254H19.3168H19.3081H19.2994H19.2907H19.2819H19.2731H19.2644H19.2555H19.2467H19.2378H19.229H19.22H19.2111H19.2022H19.1932H19.1842H19.1752H19.1661H19.1571H19.148H19.1389H19.1298H19.1206H19.1114H19.1022H19.093H19.0838H19.0745H19.0652H19.0559H19.0466H19.0372H19.0278H19.0184H19.009H18.9995H18.9901H18.9806H18.9711H18.9615H18.952H18.9424H18.9328H18.9231H18.9135H18.9038H18.8941H18.8844H18.8747H18.8649H18.8551H18.8453H18.8355H18.8256H18.8157H18.8058H18.7959H18.7859H18.776H18.766H18.7559H18.7459H18.7358H18.7258H18.7156H18.7055H18.6954H18.6852H18.675H18.6648H18.6545H18.6442H18.6339H18.6236H18.6133H18.6029H18.5925H18.5821H18.5717H18.5612H18.5508H18.5403H18.5297H18.5192H18.5086H18.498H18.4874H18.4768H18.4661H18.4554H18.4447H18.434H18.4232H18.4125H18.4017H18.3908H18.38H18.3691H18.3582H18.3473H18.3364H18.3254H18.3144H18.3034H18.2924H18.2813H18.2702H18.2591H18.248H18.2369H18.2257H18.2145H18.2033H18.192H18.1808H18.1695H18.1582H18.1468H18.1355H18.1241H18.1127H18.1012H18.0898H18.0783H18.0668H18.0553H18.0437H18.0322H18.0206H18.009H17.9973H17.9856H17.974H17.9622H17.9505H17.9388H17.927H17.9152H17.9033H17.8915H17.8796H17.8677H17.8558H17.8438H17.8319H17.8199H17.8079H17.7958H17.7837H17.7717H17.7595H17.7474H17.7353H17.7231H17.7109H17.6986H17.6864H17.6741H17.6618H17.6495H17.6371H17.6248H17.6124H17.5999H17.5875H17.575H17.5625H17.55H17.5375H17.5249H17.5123H17.4997H17.4871H17.4744H17.4617H17.449H17.4363H17.4236H17.4108H17.398H17.3851H17.3723H17.3594H17.3465H17.3336H17.3207H17.3077L17.2818 12.2C16.9578 12.2 16.6752 12.2 16.446 12.1823C16.2097 12.164 15.9492 12.1228 15.7051 11.9905C15.4447 11.8495 15.2782 11.647 15.1538 11.445C15.045 11.2681 14.9431 11.0472 14.8394 10.8225L14.826 10.7933C14.6941 10.5076 14.5639 10.1875 14.4445 9.87405L11.4817 16.2933C11.3673 16.5412 11.1192 16.7 10.8462 16.7C10.5731 16.7 10.325 16.5412 10.2106 16.2933L10.2031 16.2772L10.2012 16.273L10.2002 16.2708L10.1992 16.2687L10.1972 16.2644L10.1962 16.2622L10.1952 16.2599L10.1867 16.2417L10.1778 16.2223L10.1585 16.1804L10.1481 16.1579L10.1372 16.1344L10.114 16.0841L10.1079 16.0709L10.1017 16.0575L10.089 16.0298L10.062 15.9714L10.0585 15.9638L10.055 15.9562L10.0514 15.9485L10.0478 15.9407L10.0332 15.909L10.0025 15.8425L9.99456 15.8253L9.99054 15.8166L9.98649 15.8078L9.97001 15.7721L9.9616 15.7539L9.95308 15.7354L9.9357 15.6978L9.93128 15.6882L9.92906 15.6834L9.92684 15.6786L9.92236 15.6689L9.92012 15.664L9.91786 15.6591L9.89958 15.6195L9.88086 15.5789L9.87133 15.5583L9.86653 15.5479L9.86169 15.5374L9.82204 15.4515L9.80155 15.4071L9.79637 15.3959L9.79376 15.3902L9.79115 15.3846L9.78064 15.3618L9.77799 15.3561L9.77534 15.3503L9.77268 15.3446L9.77002 15.3388L9.75929 15.3155L9.73751 15.2683L9.64612 15.0703L9.5979 14.9659L9.57317 14.9123L9.56065 14.8851L9.5575 14.8783L9.55435 14.8715L9.54802 14.8578L9.54485 14.8509L9.54167 14.844L9.53529 14.8302L9.52889 14.8163L9.52246 14.8024L9.4965 14.7462L9.44334 14.631L9.43658 14.6163L9.4332 14.609L9.4298 14.6016L9.41616 14.5721L9.40242 14.5423L9.39551 14.5274L9.39205 14.5198L9.38858 14.5123L9.3606 14.4517L9.34646 14.4211L9.33222 14.3902L9.30344 14.3279L9.28891 14.2964L9.27428 14.2647L9.27061 14.2567L9.26693 14.2488L9.25955 14.2328L9.24472 14.2006L9.21478 14.1358L9.18445 14.0701L9.16914 14.0369L9.15374 14.0035L9.12265 13.9361L9.11873 13.9277L9.11481 13.9192L9.10696 13.9021L9.09117 13.868L9.05932 13.7989L9.05531 13.7903L9.0513 13.7816L9.04728 13.7728L9.04325 13.7641L9.02709 13.7291L8.99449 13.6585L8.99039 13.6496L8.98628 13.6407L8.98217 13.6318L8.97805 13.6229L8.9698 13.605L8.96152 13.587L8.82597 13.2933C8.46988 12.5218 8.18839 12.0739 7.9986 11.8312C7.95341 11.7734 7.91609 11.7308 7.88702 11.7H3V18C3 19.1046 3.89543 20 5 20H19C20.1046 20 21 19.1046 21 18V12.2ZM16.3896 10.7722C16.3896 10.7723 16.3889 10.7717 16.3874 10.7701C16.3889 10.7714 16.3896 10.7722 16.3896 10.7722ZM7.80666 11.6272C7.80657 11.6268 7.81122 11.6296 7.82089 11.6372C7.81157 11.6315 7.80674 11.6277 7.80666 11.6272Z" fill="#797979"/>
</svg>
